<?xml version="1.0" encoding="UTF-8" standalone="no"?><!DOCTYPE svg PUBLIC "-//W3C//DTD SVG 1.1//EN" "http://www.w3.org/Graphics/SVG/1.1/DTD/svg11.dtd"><svg width="100%" height="100%" viewBox="0 0 589 569" version="1.1" xmlns="http://www.w3.org/2000/svg" xmlns:xlink="http://www.w3.org/1999/xlink" xml:space="preserve" xmlns:serif="http://www.serif.com/" style="fill-rule:evenodd;clip-rule:evenodd;stroke-miterlimit:10;"><rect id="Artboard1" x="0" y="0" width="588.78" height="568.814" style="fill:none;"/><g><g><circle cx="294.39" cy="284.407" r="208.333" style="fill:#fff;"/><path d="M474.798,284.27c0,-99.572 -80.839,-180.412 -180.41,-180.412c-99.569,0 -180.408,80.84 -180.408,180.412c-0,99.572 80.839,180.411 180.408,180.411c99.571,-0 180.41,-80.839 180.41,-180.411Z" style="fill:none;stroke:#1a171b;stroke-width:19.29px;"/><path d="M328.793,198.588c-0,18.998 -15.403,34.4 -34.407,34.4c-18.997,-0 -34.4,-15.402 -34.4,-34.4c-0,-18.999 15.403,-34.4 34.4,-34.4c19.004,-0 34.407,15.401 34.407,34.4" style="fill:#da007a;fill-rule:nonzero;"/><path d="M404.915,370.963c-0,18.994 -15.399,34.399 -34.406,34.399c-18.994,-0 -34.397,-15.405 -34.397,-34.399c-0,-19.002 15.403,-34.407 34.397,-34.407c19.007,0 34.406,15.405 34.406,34.407" style="fill:#da007a;fill-rule:nonzero;"/><path d="M240.388,284.268c0,18.997 -15.399,34.403 -34.402,34.403c-18.998,-0 -34.399,-15.406 -34.399,-34.403c0,-18.998 15.401,-34.401 34.399,-34.401c19.003,0 34.402,15.403 34.402,34.401" style="fill:#da007a;fill-rule:nonzero;"/><path d="M288.679,238.246l-0,228.438l11.421,0l0,-228.435c-1.867,0.262 -3.763,0.445 -5.705,0.445c-1.948,-0 -3.844,-0.183 -5.716,-0.448" style="fill:#1a171b;fill-rule:nonzero;"/><path d="M300.101,158.026l-0,-56.168l-11.421,0l-0,56.168c1.872,-0.263 3.768,-0.448 5.716,-0.448c1.942,-0 3.838,0.185 5.705,0.448" style="fill:#1a171b;fill-rule:nonzero;"/><path d="M254.041,192.875l-119.329,0l0,11.423l119.804,-0c-0.429,-2.362 -0.686,-4.78 -0.686,-7.262c0,-1.405 0.072,-2.793 0.211,-4.161" style="fill:#1a171b;fill-rule:nonzero;"/><path d="M454.068,192.875l-119.335,0c0.14,1.368 0.212,2.756 0.212,4.161c0,2.482 -0.257,4.9 -0.685,7.262l119.808,-0l-0,-11.423Z" style="fill:#1a171b;fill-rule:nonzero;"/><path d="M165.883,278.558l-51.902,0l-0,11.421l51.902,0c-0.269,-1.87 -0.451,-3.766 -0.451,-5.708c0,-1.944 0.182,-3.842 0.451,-5.713" style="fill:#1a171b;fill-rule:nonzero;"/><path d="M474.798,278.558l-228.699,0c0.263,1.871 0.446,3.769 0.446,5.713c-0,1.942 -0.183,3.838 -0.446,5.708l228.699,0l0,-11.421Z" style="fill:#1a171b;fill-rule:nonzero;"/><path d="M387.423,284.268c0,-104.367 -41.34,-186.121 -94.11,-186.121c-45.74,0 -82.87,61.429 -91.959,145.743c1.173,-0.099 2.358,-0.18 3.561,-0.18c2.736,-0 5.405,0.28 7.99,0.797c8.783,-76.288 42.033,-134.937 80.408,-134.937c44.821,-0 82.688,80.002 82.688,174.698c-0,15.965 -1.1,31.485 -3.101,46.304c3.975,0.323 7.778,1.228 11.347,2.616c2.059,-15.545 3.176,-31.925 3.176,-48.92" style="fill:#1a171b;fill-rule:nonzero;"/><path d="M293.313,458.718c-38.373,0 -71.625,-58.544 -80.408,-134.69c-2.582,0.52 -5.254,0.798 -7.99,0.798c-1.203,-0 -2.388,-0.078 -3.561,-0.177c9.089,84.157 46.219,145.468 91.959,145.468c27.81,0 52.437,-22.681 69.521,-59.369c-4.038,-0.674 -7.867,-1.93 -11.405,-3.704c-15.066,31.737 -35.723,51.674 -58.116,51.674" style="fill:#1a171b;fill-rule:nonzero;"/><path d="M330.048,365.251l-195.334,0l-0,11.423l195.338,-0c-0.265,-1.874 -0.448,-3.77 -0.448,-5.716c-0,-1.943 0.183,-3.839 0.444,-5.707" style="fill:#1a171b;fill-rule:nonzero;"/><path d="M454.068,365.251l-43.798,0c0.263,1.868 0.446,3.764 0.446,5.707c-0,1.946 -0.183,3.842 -0.448,5.716l43.8,-0l-0,-11.423Z" style="fill:#1a171b;fill-rule:nonzero;"/><path d="M454.068,365.251l-43.798,0c0.263,1.868 0.446,3.764 0.446,5.707c-0,1.946 -0.183,3.842 -0.448,5.716l43.8,-0l-0,-11.423Z" style="fill:#1a171b;fill-rule:nonzero;"/></g></g></svg>