<?xml version="1.0" encoding="UTF-8" standalone="no"?>
<!DOCTYPE svg PUBLIC "-//W3C//DTD SVG 1.1//EN" "http://www.w3.org/Graphics/SVG/1.1/DTD/svg11.dtd">
<svg width="100%" height="100%" viewBox="0 0 800 250" version="1.1" xmlns="http://www.w3.org/2000/svg" xmlns:xlink="http://www.w3.org/1999/xlink" xml:space="preserve" xmlns:serif="http://www.serif.com/" style="fill-rule:evenodd;clip-rule:evenodd;stroke-linejoin:round;stroke-miterlimit:2;">
    <g transform="matrix(1,0,0,1,-1221.77,-760.859)">
        <g transform="matrix(1,0,0,1,984.698,125.999)">
            <rect x="237.069" y="634.86" width="799.454" height="249.326" style="fill:rgb(18,35,115);"/>
        </g>
        <g transform="matrix(0.304864,0,0,0.304864,1514.83,800.191)">
            <path d="M140.62,243.88L205.581,270.818L205.577,270.818C198.253,289.31 192.413,308.353 188.108,327.771L185.643,338.97L278.772,432.154L289.971,429.748L289.971,429.744C309.389,425.439 328.432,419.599 346.924,412.275L373.862,477.236L373.858,477.232C374.394,478.541 375.554,479.49 376.94,479.763C378.327,480.033 379.757,479.587 380.745,478.576L421.456,437.865L421.46,437.865C434.894,424.431 442.015,405.939 441.058,386.963L439.605,360.811C514.98,305.147 591.245,207.541 612.025,37.191C613.22,28.534 610.302,19.816 604.138,13.617C597.978,7.421 589.275,4.46 580.611,5.609C410.311,26.55 312.651,102.879 256.991,178.029L230.893,176.685C211.959,175.654 193.471,182.673 179.991,196.005L139.28,236.716C138.132,237.693 137.593,239.208 137.87,240.693C138.147,242.173 139.198,243.392 140.624,243.884L140.62,243.88ZM401.8,144.65C411.261,135.22 424.077,129.935 437.433,129.951C450.792,129.967 463.597,135.283 473.035,144.732C482.473,154.181 487.777,166.994 487.777,180.349C487.777,193.704 482.472,206.517 473.035,215.966C463.597,225.415 450.793,230.736 437.433,230.747C424.078,230.763 411.261,225.477 401.8,216.048C392.308,206.591 386.976,193.747 386.976,180.349C386.976,166.951 392.308,154.107 401.8,144.65ZM128.46,439.6C117.679,435.815 106.105,434.889 94.858,436.909C92.827,437.35 90.714,436.717 89.26,435.229C87.444,433.42 86.952,430.67 88.026,428.342C99.956,402.694 131.596,351.119 188.886,392.783C189.491,393.322 189.839,394.1 189.839,394.908C189.839,395.721 189.491,396.498 188.886,397.037C173.331,409.287 164.538,428.209 165.198,447.998C165.284,450.373 167.19,452.279 169.565,452.365C189.268,453.158 208.178,444.557 220.526,429.181C221.069,428.517 221.882,428.131 222.737,428.131C223.596,428.131 224.409,428.517 224.952,429.181C232.905,438.646 254.8,469.556 230.553,499.404L230.549,499.404C219.963,512.131 204.795,520.174 188.326,521.806C164.806,524.326 121.349,531.997 103.599,552.271C102.146,553.99 99.865,554.771 97.662,554.303C95.463,553.834 93.697,552.193 93.068,550.029C86.799,528.638 77.052,480.814 128.463,439.599L128.46,439.6Z" style="fill:rgb(236,236,236);fill-rule:nonzero;"/>
        </g>
    </g>
</svg>
