<?xml version="1.0" encoding="UTF-8" standalone="no"?><!DOCTYPE svg PUBLIC "-//W3C//DTD SVG 1.1//EN" "http://www.w3.org/Graphics/SVG/1.1/DTD/svg11.dtd"><svg width="100%" height="100%" viewBox="0 0 417 417" version="1.1" xmlns="http://www.w3.org/2000/svg" xmlns:xlink="http://www.w3.org/1999/xlink" xml:space="preserve" xmlns:serif="http://www.serif.com/" style="fill-rule:evenodd;clip-rule:evenodd;stroke-linejoin:round;stroke-miterlimit:2;"><rect id="Artboard1" x="0" y="0" width="416.667" height="416.667" style="fill:none;"/><path d="M208.341,20.833c-103.558,0 -187.508,83.966 -187.508,187.508c0,103.557 83.95,187.492 187.508,187.492c103.557,0 187.492,-83.935 187.492,-187.492c0,-103.542 -83.942,-187.508 -187.492,-187.508Zm94.45,149.702c0.099,2.025 0.138,4.058 0.138,6.114c-0,62.447 -47.53,134.442 -134.442,134.442c-26.682,0 -51.528,-7.82 -72.437,-21.221c3.7,0.434 7.454,0.654 11.269,0.654c22.143,0 42.52,-7.553 58.685,-20.224c-20.673,-0.388 -38.118,-14.056 -44.134,-32.826c2.879,0.564 5.841,0.845 8.887,0.845c4.309,0 8.482,-0.563 12.449,-1.652c-21.625,-4.34 -37.912,-23.453 -37.912,-46.327c-0,-0.205 -0,-0.403 0.007,-0.609c6.366,3.541 13.653,5.665 21.405,5.917c-12.686,-8.491 -21.024,-22.935 -21.024,-39.337c-0,-8.658 2.33,-16.782 6.396,-23.757c23.308,28.585 58.129,47.4 97.405,49.365c-0.807,-3.45 -1.226,-7.067 -1.226,-10.767c0,-26.088 21.153,-47.248 47.256,-47.248c13.592,-0 25.866,5.741 34.486,14.916c10.767,-2.109 20.879,-6.053 30.009,-11.467c-3.541,11.041 -11.026,20.3 -20.788,26.141c9.572,-1.143 18.679,-3.686 27.146,-7.44c-6.32,9.495 -14.338,17.818 -23.575,24.481Z" style="fill:#d82c7d;fill-rule:nonzero;"/></svg>