<?xml version="1.0" encoding="UTF-8" standalone="no"?><!DOCTYPE svg PUBLIC "-//W3C//DTD SVG 1.1//EN" "http://www.w3.org/Graphics/SVG/1.1/DTD/svg11.dtd"><svg width="100%" height="100%" viewBox="0 0 417 417" version="1.1" xmlns="http://www.w3.org/2000/svg" xmlns:xlink="http://www.w3.org/1999/xlink" xml:space="preserve" xmlns:serif="http://www.serif.com/" style="fill-rule:evenodd;clip-rule:evenodd;stroke-linejoin:round;stroke-miterlimit:2;"><rect id="Artboard1" x="0" y="0" width="416.667" height="416.667" style="fill:none;"/><g><path d="M51.851,311.975c28.048,42.261 72.75,72.473 124.744,81.334c-24.194,-22.948 -43.966,-50.503 -57.751,-81.334l-66.993,0Z" style="fill:#d82c7d;fill-rule:nonzero;"/><path d="M240.072,23.358c24.194,22.947 43.965,50.503 57.751,81.334l66.992,-0c-28.047,-42.261 -72.75,-72.474 -124.743,-81.334Z" style="fill:#d82c7d;fill-rule:nonzero;"/><path d="M304.374,296.029l69.914,-0c12.695,-23.969 20.345,-51.007 21.545,-79.724l-76.119,-0c-0.866,27.925 -6.156,54.746 -15.34,79.724Z" style="fill:#d82c7d;fill-rule:nonzero;"/><path d="M304.374,120.638c9.184,24.978 14.474,51.799 15.34,79.722l76.119,0c-1.2,-28.715 -8.85,-55.753 -21.545,-79.722l-69.914,0Z" style="fill:#d82c7d;fill-rule:nonzero;"/><path d="M216.305,393.408c26.883,-22.027 48.872,-49.798 64.115,-81.433l-64.115,0l-0,81.433Z" style="fill:#d82c7d;fill-rule:nonzero;"/><path d="M216.305,23.258l-0,81.434l64.115,-0c-15.243,-31.635 -37.232,-59.406 -64.115,-81.434Z" style="fill:#d82c7d;fill-rule:nonzero;"/><path d="M216.305,120.638l-0,79.722l87.471,0c-0.924,-28.072 -6.665,-54.907 -16.459,-79.722l-71.012,0Z" style="fill:#d82c7d;fill-rule:nonzero;"/><path d="M303.776,216.305l-87.471,-0l-0,79.724l71.012,-0c9.794,-24.815 15.535,-51.65 16.459,-79.724Z" style="fill:#d82c7d;fill-rule:nonzero;"/><path d="M42.379,296.029l69.913,-0c-9.183,-24.978 -14.473,-51.799 -15.336,-79.724l-76.123,-0c1.201,28.717 8.85,55.755 21.546,79.724Z" style="fill:#d82c7d;fill-rule:nonzero;"/><path d="M51.851,104.692l66.993,-0c13.785,-30.831 33.557,-58.387 57.751,-81.334c-51.994,8.86 -96.696,39.073 -124.744,81.334Z" style="fill:#d82c7d;fill-rule:nonzero;"/><path d="M200.362,23.258c-26.884,22.028 -48.873,49.799 -64.115,81.434l64.115,-0l0,-81.434Z" style="fill:#d82c7d;fill-rule:nonzero;"/><path d="M20.833,200.36l76.123,0c0.863,-27.923 6.153,-54.744 15.336,-79.722l-69.913,0c-12.696,23.969 -20.345,51.007 -21.546,79.722Z" style="fill:#d82c7d;fill-rule:nonzero;"/><path d="M364.815,311.975l-66.992,0c-13.786,30.831 -33.557,58.386 -57.751,81.334c51.993,-8.861 96.696,-39.073 124.743,-81.334Z" style="fill:#d82c7d;fill-rule:nonzero;"/><path d="M200.362,216.305l-87.471,-0c0.923,28.074 6.665,54.909 16.459,79.724l71.012,-0l0,-79.724Z" style="fill:#d82c7d;fill-rule:nonzero;"/><path d="M200.362,120.638l-71.012,0c-9.794,24.815 -15.536,51.65 -16.459,79.722l87.471,0l0,-79.722Z" style="fill:#d82c7d;fill-rule:nonzero;"/><path d="M200.362,393.408l0,-81.433l-64.115,0c15.242,31.635 37.231,59.406 64.115,81.433Z" style="fill:#d82c7d;fill-rule:nonzero;"/></g></svg>