<?xml version="1.0" encoding="UTF-8" standalone="no"?><!DOCTYPE svg PUBLIC "-//W3C//DTD SVG 1.1//EN" "http://www.w3.org/Graphics/SVG/1.1/DTD/svg11.dtd"><svg width="100%" height="100%" viewBox="0 0 2026 1030" version="1.1" xmlns="http://www.w3.org/2000/svg" xmlns:xlink="http://www.w3.org/1999/xlink" xml:space="preserve" xmlns:serif="http://www.serif.com/" style="fill-rule:evenodd;clip-rule:evenodd;stroke-miterlimit:10;"><rect id="Artboard1" x="0" y="0" width="2025.29" height="1029.17" style="fill:#112372;"/><g id="Ebene-1" serif:id="Ebene 1"><path d="M175.982,908.382l-0,-192.709l35.286,0l89.323,131.641l0,-131.641l32.162,0l-0,192.709l-35.938,-0l-88.672,-131.641l0,131.641l-32.161,-0Z" style="fill:#1a171b;fill-rule:nonzero;"/><path d="M446.241,913.199c-29.254,0 -52.648,-9.201 -70.183,-27.604c-17.534,-18.403 -26.302,-42.925 -26.302,-73.567c0,-30.99 8.811,-55.599 26.433,-73.829c17.621,-18.229 41.406,-27.343 71.354,-27.343c29.774,-0 53.494,9.114 71.159,27.343c17.665,18.23 26.497,42.709 26.497,73.438c0,31.424 -8.832,56.207 -26.497,74.349c-17.665,18.142 -41.819,27.213 -72.461,27.213Zm0.521,-26.562c17.187,-0 30.794,-6.749 40.82,-20.247c10.026,-13.499 15.039,-31.793 15.039,-54.883c-0,-22.396 -5.035,-40.365 -15.104,-53.907c-10.07,-13.541 -23.394,-20.312 -39.974,-20.312c-16.754,-0 -30.143,6.771 -40.169,20.312c-10.026,13.542 -15.039,31.641 -15.039,54.297c-0,22.483 4.991,40.56 14.973,54.232c9.983,13.672 23.134,20.508 39.454,20.508Z" style="fill:#1a171b;fill-rule:nonzero;"/><path d="M562.073,908.382l-0,-192.709l72.135,0c39.149,0 58.724,15.929 58.724,47.787c0,11.892 -3.32,22.721 -9.961,32.487c-6.64,9.765 -15.777,17.252 -27.409,22.461l63.021,89.974l-48.828,-0l-47.786,-78.776l-22.136,-0l0,78.776l-37.76,-0Zm37.76,-105.209l9.245,0c29.08,0 43.62,-11.762 43.62,-35.286c-0,-17.188 -12.978,-25.781 -38.933,-25.781l-13.932,-0l0,61.067Z" style="fill:#1a171b;fill-rule:nonzero;"/><path d="M1739.51,380.598c0,-145.291 -117.956,-263.25 -263.246,-263.25c-145.289,0 -263.245,117.959 -263.245,263.25c-0,145.292 117.956,263.25 263.245,263.25c145.29,0 263.246,-117.958 263.246,-263.25Z" style="fill:none;stroke:#fff;stroke-width:16.67px;"/><path d="M1526.46,255.574c-0,27.721 -22.475,50.196 -50.204,50.196c-27.721,-0 -50.196,-22.475 -50.196,-50.196c-0,-27.721 22.475,-50.196 50.196,-50.196c27.729,0 50.204,22.475 50.204,50.196" style="fill:#fff;fill-rule:nonzero;"/><path d="M1637.54,507.096c-0,27.716 -22.471,50.195 -50.204,50.195c-27.717,0 -50.192,-22.479 -50.192,-50.195c-0,-27.725 22.475,-50.205 50.192,-50.205c27.733,0 50.204,22.48 50.204,50.205" style="fill:#fff;fill-rule:nonzero;"/><path d="M1397.46,380.594c0,27.721 -22.471,50.2 -50.2,50.2c-27.721,0 -50.192,-22.479 -50.192,-50.2c0,-27.72 22.471,-50.195 50.192,-50.195c27.729,-0 50.2,22.475 50.2,50.195" style="fill:#fff;fill-rule:nonzero;"/><path d="M1467.93,313.441l-0,333.33l16.667,-0l-0,-333.325c-2.725,0.383 -5.492,0.65 -8.325,0.65c-2.842,-0 -5.609,-0.267 -8.342,-0.655" style="fill:#fff;fill-rule:nonzero;"/><path d="M1484.59,196.388l-0,-81.958l-16.667,-0l-0,81.958c2.733,-0.383 5.5,-0.654 8.342,-0.654c2.833,-0 5.6,0.271 8.325,0.654" style="fill:#fff;fill-rule:nonzero;"/><path d="M1417.39,247.239l-174.121,-0l0,16.666l174.813,0c-0.625,-3.446 -1,-6.975 -1,-10.596c-0,-2.05 0.104,-4.075 0.308,-6.07" style="fill:#fff;fill-rule:nonzero;"/><path d="M1709.26,247.239l-174.129,-0c0.204,1.995 0.308,4.02 0.308,6.07c0,3.621 -0.375,7.15 -1,10.596l174.821,0l0,-16.666Z" style="fill:#fff;fill-rule:nonzero;"/><path d="M1288.75,372.263l-75.733,0l-0,16.667l75.733,-0c-0.391,-2.729 -0.658,-5.496 -0.658,-8.329c-0,-2.838 0.267,-5.609 0.658,-8.338" style="fill:#fff;fill-rule:nonzero;"/><path d="M1739.51,372.263l-333.708,0c0.383,2.729 0.65,5.5 0.65,8.338c-0,2.833 -0.267,5.6 -0.65,8.329l333.708,-0l0,-16.667Z" style="fill:#fff;fill-rule:nonzero;"/><path d="M1612.01,380.594c-0,-152.287 -60.321,-271.579 -137.321,-271.579c-66.742,0 -120.921,89.634 -134.183,212.663c1.712,-0.146 3.441,-0.263 5.195,-0.263c3.992,0 7.888,0.409 11.659,1.163c12.816,-111.317 61.333,-196.896 117.329,-196.896c65.4,-0 120.654,116.737 120.654,254.912c0,23.296 -1.604,45.942 -4.525,67.567c5.8,0.471 11.35,1.792 16.558,3.817c3.005,-22.684 4.634,-46.584 4.634,-71.384" style="fill:#fff;fill-rule:nonzero;"/><path d="M1474.69,635.148c-55.992,-0 -104.513,-85.425 -117.329,-196.534c-3.767,0.759 -7.667,1.163 -11.659,1.163c-1.754,-0 -3.483,-0.113 -5.195,-0.258c13.262,122.8 67.441,212.262 134.183,212.262c40.579,0 76.512,-33.096 101.442,-86.629c-5.892,-0.983 -11.48,-2.817 -16.642,-5.404c-21.983,46.308 -52.125,75.4 -84.8,75.4" style="fill:#fff;fill-rule:nonzero;"/><path d="M1528.29,498.762l-285.025,0l0,16.667l285.029,-0c-0.387,-2.733 -0.654,-5.5 -0.654,-8.342c0,-2.833 0.267,-5.6 0.65,-8.325" style="fill:#fff;fill-rule:nonzero;"/><path d="M1709.26,498.762l-63.908,0c0.383,2.725 0.65,5.492 0.65,8.325c-0,2.842 -0.267,5.609 -0.654,8.342l63.912,-0l0,-16.667Z" style="fill:#fff;fill-rule:nonzero;"/><path d="M310.957,346.286l36.137,0c44.25,0 100.305,-1.475 100.305,-59.737c-0,-47.938 -47.942,-56.788 -100.305,-56.788l-36.137,0l-0,116.525Zm-137.175,-213.879l244.85,0c91.454,0 165.937,41.304 165.937,129.804c0,68.588 -32.45,114.313 -98.82,129.8l-0,1.475c44.25,11.8 47.2,50.892 73.012,113.575l50.146,140.13l-143.075,-0l-29.5,-92.925c-28.025,-88.505 -45.725,-110.63 -96.613,-110.63l-28.762,0l-0,203.555l-137.175,-0l-0,-514.784Z" style="fill:#112372;fill-rule:nonzero;"/><path d="M671.587,132.409l174.788,-0l174.05,349.579l1.483,0l-2.216,-349.579l125.375,-0l-0,514.783l-170.359,0l-179.954,-351.791l-1.479,-0l4.429,351.791l-126.117,0l0,-514.783Z" style="fill:#112372;fill-rule:nonzero;"/><path d="M914.621,805.584c-0,44.138 -35.779,79.917 -79.917,79.917c-44.137,-0 -79.917,-35.779 -79.917,-79.917c0,-44.141 35.78,-79.921 79.917,-79.921c44.138,0 79.917,35.78 79.917,79.921" style="fill:#da007a;fill-rule:nonzero;"/><g transform="matrix(4.16667,0,0,4.16667,221.934,17.8665)"><g transform="matrix(24,0,0,24,177.85,216.547)"><path d="M0.093,-0l0,-0.723l0.219,0c0.069,0 0.122,0.016 0.159,0.046c0.037,0.031 0.056,0.075 0.056,0.134c-0,0.096 -0.049,0.164 -0.146,0.205l0.241,0.338l-0.126,-0l-0.205,-0.306l-0.096,0l-0,0.306l-0.102,-0Zm0.102,-0.382l0.033,-0c0.129,-0 0.193,-0.051 0.193,-0.152c0,-0.075 -0.054,-0.112 -0.162,-0.112l-0.064,0l-0,0.264Z" style="fill:#112372;fill-rule:nonzero;"/></g><g transform="matrix(24,0,0,24,190.217,216.547)"><path d="M0.485,-0.017c-0.065,0.019 -0.12,0.029 -0.166,0.029c-0.078,0 -0.142,-0.026 -0.191,-0.078c-0.049,-0.052 -0.074,-0.119 -0.074,-0.202c0,-0.08 0.022,-0.146 0.065,-0.197c0.044,-0.052 0.099,-0.077 0.167,-0.077c0.064,-0 0.114,0.022 0.149,0.068c0.035,0.045 0.052,0.11 0.052,0.194l-0,0.03l-0.335,0c0.014,0.126 0.076,0.189 0.185,0.189c0.04,-0 0.09,-0.011 0.148,-0.032l-0,0.076Zm-0.328,-0.305l0.234,-0c-0,-0.099 -0.037,-0.148 -0.111,-0.148c-0.074,-0 -0.115,0.049 -0.123,0.148Z" style="fill:#112372;fill-rule:nonzero;"/></g><g transform="matrix(24,0,0,24,200.78,216.547)"><path d="M0.096,0.193l0,-0.723l0.096,-0l0,0.099c0.04,-0.074 0.099,-0.111 0.178,-0.111c0.063,0 0.114,0.023 0.15,0.07c0.037,0.046 0.055,0.11 0.055,0.191c0,0.088 -0.021,0.159 -0.062,0.212c-0.042,0.054 -0.096,0.081 -0.164,0.081c-0.063,0 -0.115,-0.024 -0.157,-0.072l0,0.253l-0.096,-0Zm0.096,-0.319c0.05,0.044 0.097,0.066 0.142,0.066c0.092,-0 0.139,-0.071 0.139,-0.211c-0,-0.125 -0.041,-0.187 -0.123,-0.187c-0.054,-0 -0.107,0.029 -0.158,0.087l0,0.245Z" style="fill:#112372;fill-rule:nonzero;"/></g><g transform="matrix(24,0,0,24,213.077,216.547)"><path d="M0.096,-0l0,-0.53l0.096,-0l0,0.099c0.038,-0.074 0.094,-0.111 0.166,-0.111c0.01,0 0.02,0.001 0.031,0.002l0,0.09c-0.016,-0.005 -0.031,-0.008 -0.044,-0.008c-0.061,-0 -0.112,0.036 -0.153,0.108l0,0.35l-0.096,0Z" style="fill:#112372;fill-rule:nonzero;"/></g><g transform="matrix(24,0,0,24,220.089,216.547)"><path d="M0.304,0.012c-0.076,0 -0.137,-0.025 -0.182,-0.075c-0.045,-0.051 -0.068,-0.118 -0.068,-0.202c0,-0.085 0.023,-0.153 0.068,-0.203c0.046,-0.049 0.107,-0.074 0.185,-0.074c0.078,0 0.14,0.025 0.185,0.074c0.045,0.05 0.068,0.117 0.068,0.202c0,0.086 -0.023,0.155 -0.068,0.204c-0.046,0.049 -0.109,0.074 -0.188,0.074Zm0.001,-0.072c0.102,-0 0.153,-0.069 0.153,-0.206c0,-0.136 -0.05,-0.204 -0.151,-0.204c-0.1,0 -0.15,0.068 -0.15,0.205c-0,0.137 0.049,0.205 0.148,0.205Z" style="fill:#112372;fill-rule:nonzero;"/></g><g transform="matrix(24,0,0,24,232.022,216.547)"><path d="M0.437,-0l-0,-0.1c-0.04,0.075 -0.098,0.112 -0.177,0.112c-0.064,0 -0.114,-0.023 -0.151,-0.07c-0.036,-0.046 -0.055,-0.11 -0.055,-0.191c0,-0.088 0.021,-0.159 0.062,-0.212c0.042,-0.054 0.097,-0.081 0.164,-0.081c0.063,0 0.115,0.024 0.157,0.072l-0,-0.301l0.096,0l0,0.771l-0.096,-0Zm-0,-0.404c-0.05,-0.044 -0.097,-0.066 -0.142,-0.066c-0.092,0 -0.138,0.071 -0.138,0.212c-0,0.124 0.041,0.186 0.123,0.186c0.053,-0 0.105,-0.029 0.157,-0.088l-0,-0.244Z" style="fill:#112372;fill-rule:nonzero;"/></g><g transform="matrix(24,0,0,24,244.319,216.547)"><path d="M0.428,-0l-0,-0.1c-0.051,0.075 -0.113,0.112 -0.186,0.112c-0.047,0 -0.083,-0.014 -0.111,-0.043c-0.027,-0.03 -0.041,-0.069 -0.041,-0.118l0,-0.381l0.097,-0l-0,0.349c-0,0.04 0.005,0.068 0.017,0.085c0.011,0.017 0.031,0.025 0.058,0.025c0.058,0 0.114,-0.038 0.166,-0.116l-0,-0.343l0.096,-0l-0,0.53l-0.096,-0Z" style="fill:#112372;fill-rule:nonzero;"/></g><g transform="matrix(24,0,0,24,256.405,216.547)"><path d="M0.303,0.012c-0.071,0 -0.131,-0.026 -0.178,-0.079c-0.047,-0.053 -0.071,-0.12 -0.071,-0.201c0,-0.086 0.024,-0.154 0.07,-0.202c0.047,-0.048 0.112,-0.072 0.196,-0.072c0.041,0 0.087,0.006 0.138,0.017l0,0.081c-0.054,-0.016 -0.098,-0.024 -0.132,-0.024c-0.049,-0 -0.089,0.018 -0.119,0.055c-0.03,0.037 -0.044,0.086 -0.044,0.148c-0,0.059 0.015,0.108 0.045,0.144c0.031,0.037 0.071,0.056 0.121,0.056c0.044,-0 0.089,-0.012 0.135,-0.034l0,0.083c-0.062,0.019 -0.116,0.028 -0.161,0.028Z" style="fill:#112372;fill-rule:nonzero;"/></g><g transform="matrix(24,0,0,24,265.889,216.547)"><path d="M0.096,-0l0,-0.53l0.096,-0l0,0.53l-0.096,-0Zm0,-0.626l0,-0.097l0.096,0l0,0.097l-0.096,-0Z" style="fill:#112372;fill-rule:nonzero;"/></g><g transform="matrix(24,0,0,24,270.018,216.547)"><path d="M0.096,0.006l0,-0.777l0.096,0l0,0.34c0.04,-0.074 0.099,-0.111 0.178,-0.111c0.063,0 0.114,0.023 0.15,0.07c0.037,0.046 0.055,0.11 0.055,0.191c0,0.088 -0.021,0.159 -0.062,0.212c-0.042,0.054 -0.096,0.081 -0.164,0.081c-0.063,0 -0.115,-0.024 -0.157,-0.072l-0.011,0.066l-0.085,-0Zm0.096,-0.132c0.05,0.044 0.097,0.066 0.142,0.066c0.092,-0 0.139,-0.071 0.139,-0.211c-0,-0.125 -0.041,-0.187 -0.123,-0.187c-0.054,-0 -0.107,0.029 -0.158,0.087l0,0.245Z" style="fill:#112372;fill-rule:nonzero;"/></g><g transform="matrix(24,0,0,24,282.315,216.547)"><path d="M0.096,-0l0,-0.53l0.096,-0l0,0.53l-0.096,-0Zm0,-0.626l0,-0.097l0.096,0l0,0.097l-0.096,-0Z" style="fill:#112372;fill-rule:nonzero;"/></g><g transform="matrix(24,0,0,24,286.444,216.547)"><rect x="0.096" y="-0.771" width="0.096" height="0.771" style="fill:#112372;fill-rule:nonzero;"/></g><g transform="matrix(24,0,0,24,290.573,216.547)"><path d="M0.096,-0l0,-0.53l0.096,-0l0,0.53l-0.096,-0Zm0,-0.626l0,-0.097l0.096,0l0,0.097l-0.096,-0Z" style="fill:#112372;fill-rule:nonzero;"/></g><g transform="matrix(24,0,0,24,294.702,216.547)"><path d="M0.255,0.012c-0.048,0 -0.087,-0.014 -0.114,-0.042c-0.027,-0.028 -0.041,-0.067 -0.041,-0.116l0,-0.312l-0.066,-0l-0,-0.072l0.066,-0l0,-0.096l0.096,-0.01l0,0.106l0.139,-0l-0,0.072l-0.139,-0l0,0.294c0,0.069 0.03,0.104 0.09,0.104c0.013,-0 0.028,-0.002 0.047,-0.006l-0,0.066c-0.03,0.008 -0.056,0.012 -0.078,0.012Z" style="fill:#112372;fill-rule:nonzero;"/></g><g transform="matrix(24,0,0,24,300.87,216.547)"><path d="M0.127,0.193l0.086,-0.193l-0.205,-0.53l0.104,-0l0.152,0.399l0.162,-0.399l0.091,-0l-0.29,0.723l-0.1,-0Z" style="fill:#112372;fill-rule:nonzero;"/></g><g transform="matrix(24,0,0,24,316.042,216.547)"><path d="M0.093,-0l0,-0.723l0.101,0l0.364,0.558l-0,-0.558l0.088,0l-0,0.723l-0.101,-0l-0.364,-0.558l0,0.558l-0.088,-0Z" style="fill:#112372;fill-rule:nonzero;"/></g><g transform="matrix(24,0,0,24,330.964,216.547)"><path d="M0.485,-0.017c-0.065,0.019 -0.12,0.029 -0.166,0.029c-0.078,0 -0.142,-0.026 -0.191,-0.078c-0.049,-0.052 -0.074,-0.119 -0.074,-0.202c0,-0.08 0.022,-0.146 0.065,-0.197c0.044,-0.052 0.099,-0.077 0.167,-0.077c0.064,-0 0.114,0.022 0.149,0.068c0.035,0.045 0.052,0.11 0.052,0.194l-0,0.03l-0.335,0c0.014,0.126 0.076,0.189 0.185,0.189c0.04,-0 0.09,-0.011 0.148,-0.032l-0,0.076Zm-0.328,-0.305l0.234,-0c-0,-0.099 -0.037,-0.148 -0.111,-0.148c-0.074,-0 -0.115,0.049 -0.123,0.148Z" style="fill:#112372;fill-rule:nonzero;"/></g><g transform="matrix(24,0,0,24,341.527,216.547)"><path d="M0.255,0.012c-0.048,0 -0.087,-0.014 -0.114,-0.042c-0.027,-0.028 -0.041,-0.067 -0.041,-0.116l0,-0.312l-0.066,-0l-0,-0.072l0.066,-0l0,-0.096l0.096,-0.01l0,0.106l0.139,-0l-0,0.072l-0.139,-0l0,0.294c0,0.069 0.03,0.104 0.09,0.104c0.013,-0 0.028,-0.002 0.047,-0.006l-0,0.066c-0.03,0.008 -0.056,0.012 -0.078,0.012Z" style="fill:#112372;fill-rule:nonzero;"/></g><g transform="matrix(24,0,0,24,347.695,216.547)"><path d="M0.158,-0l-0.152,-0.53l0.094,-0l0.116,0.41l0.126,-0.41l0.096,-0l0.11,0.41l0.133,-0.41l0.083,-0l-0.173,0.53l-0.097,-0l-0.112,-0.411l-0.127,0.411l-0.097,-0Z" style="fill:#112372;fill-rule:nonzero;"/></g><g transform="matrix(24,0,0,24,363.378,216.547)"><path d="M0.304,0.012c-0.076,0 -0.137,-0.025 -0.182,-0.075c-0.045,-0.051 -0.068,-0.118 -0.068,-0.202c0,-0.085 0.023,-0.153 0.068,-0.203c0.046,-0.049 0.107,-0.074 0.185,-0.074c0.078,0 0.14,0.025 0.185,0.074c0.045,0.05 0.068,0.117 0.068,0.202c0,0.086 -0.023,0.155 -0.068,0.204c-0.046,0.049 -0.109,0.074 -0.188,0.074Zm0.001,-0.072c0.102,-0 0.153,-0.069 0.153,-0.206c0,-0.136 -0.05,-0.204 -0.151,-0.204c-0.1,0 -0.15,0.068 -0.15,0.205c-0,0.137 0.049,0.205 0.148,0.205Z" style="fill:#112372;fill-rule:nonzero;"/></g><g transform="matrix(24,0,0,24,375.312,216.547)"><path d="M0.096,-0l0,-0.53l0.096,-0l0,0.099c0.038,-0.074 0.094,-0.111 0.166,-0.111c0.01,0 0.02,0.001 0.031,0.002l0,0.09c-0.016,-0.005 -0.031,-0.008 -0.044,-0.008c-0.061,-0 -0.112,0.036 -0.153,0.108l0,0.35l-0.096,0Z" style="fill:#112372;fill-rule:nonzero;"/></g><g transform="matrix(24,0,0,24,382.324,216.547)"><path d="M0.096,-0l0,-0.771l0.096,0l0,0.498l0.225,-0.257l0.104,-0l-0.215,0.247l0.259,0.283l-0.123,-0l-0.25,-0.272l0,0.272l-0.096,-0Z" style="fill:#112372;fill-rule:nonzero;"/></g></g><path d="M974.44,797.549l-0,-88.827l12.363,0l44.714,68.601l-0,-68.601l10.803,0l-0,88.827l-12.304,-0l-44.773,-68.601l-0,68.601l-10.803,-0Z" style="fill:#112372;fill-rule:nonzero;"/><path d="M1076.73,799.049c-9.323,0 -16.765,-3.091 -22.326,-9.272c-5.562,-6.182 -8.343,-14.455 -8.343,-24.818c0,-10.483 2.791,-18.775 8.373,-24.877c5.581,-6.102 13.154,-9.153 22.716,-9.153c9.563,0 17.135,3.051 22.717,9.153c5.582,6.102 8.373,14.354 8.373,24.757c-0,10.643 -2.801,19.006 -8.403,25.088c-5.602,6.081 -13.304,9.122 -23.107,9.122Zm0.18,-8.882c12.524,-0 18.786,-8.443 18.786,-25.328c-0,-16.685 -6.182,-25.027 -18.546,-25.027c-12.323,-0 -18.485,8.382 -18.485,25.147c-0,16.805 6.082,25.208 18.245,25.208Z" style="fill:#112372;fill-rule:nonzero;"/><path d="M1112.34,797.549l0,-65.18l11.824,0l-0,12.244c4.681,-9.123 11.483,-13.684 20.406,-13.684c1.2,0 2.46,0.1 3.781,0.3l-0,11.043c-2.041,-0.68 -3.841,-1.02 -5.402,-1.02c-7.482,0 -13.744,4.441 -18.785,13.324l-0,42.973l-11.824,-0Z" style="fill:#112372;fill-rule:nonzero;"/><path d="M1155.81,797.549l-18.665,-65.18l11.583,0l14.284,50.475l15.425,-50.475l11.823,0l13.504,50.475l16.385,-50.475l10.143,0l-21.246,65.18l-11.883,-0l-13.805,-50.475l-15.604,50.475l-11.944,-0Z" style="fill:#112372;fill-rule:nonzero;"/><path d="M1262.19,789.266c-7.082,6.522 -13.904,9.783 -20.466,9.783c-5.402,0 -9.883,-1.69 -13.444,-5.071c-3.561,-3.381 -5.342,-7.652 -5.342,-12.814c0,-7.122 2.991,-12.594 8.973,-16.415c5.982,-3.821 14.554,-5.732 25.718,-5.732l2.821,0l-0,-7.862c-0,-7.562 -3.882,-11.343 -11.644,-11.343c-6.242,-0 -12.984,1.92 -20.226,5.761l0,-9.783c7.962,-3.241 15.425,-4.861 22.387,-4.861c7.282,0 12.654,1.64 16.115,4.921c3.461,3.281 5.191,8.383 5.191,15.305l0,29.529c0,6.762 2.081,10.143 6.242,10.143c0.52,-0 1.28,-0.08 2.281,-0.24l0.84,6.542c-2.681,1.28 -5.642,1.92 -8.883,1.92c-5.521,0 -9.042,-3.261 -10.563,-9.783Zm-1.74,-6.422l-0,-16.865l-3.962,-0.12c-6.482,0 -11.723,1.231 -15.724,3.692c-4.001,2.46 -6.002,5.691 -6.002,9.692c-0,2.841 1,5.242 3.001,7.203c2,1.96 4.441,2.94 7.322,2.94c4.921,0 10.043,-2.18 15.365,-6.542Z" style="fill:#112372;fill-rule:nonzero;"/><path d="M1285.85,821.256l10.563,-23.707l-25.207,-65.18l12.784,0l18.665,49.095l19.926,-49.095l11.164,0l-35.591,88.887l-12.304,-0Z" style="fill:#112372;fill-rule:nonzero;"/><path d="M175.982,908.382l-0,-192.709l35.286,0l89.323,131.641l0,-131.641l32.162,0l-0,192.709l-35.938,-0l-88.672,-131.641l0,131.641l-32.161,-0Z" style="fill:#fff;fill-rule:nonzero;"/><path d="M446.241,913.199c-29.254,0 -52.648,-9.201 -70.183,-27.604c-17.534,-18.403 -26.302,-42.925 -26.302,-73.567c0,-30.99 8.811,-55.599 26.433,-73.829c17.621,-18.229 41.406,-27.343 71.354,-27.343c29.774,-0 53.494,9.114 71.159,27.343c17.665,18.23 26.497,42.709 26.497,73.438c0,31.424 -8.832,56.207 -26.497,74.349c-17.665,18.142 -41.819,27.213 -72.461,27.213Zm0.521,-26.562c17.187,-0 30.794,-6.749 40.82,-20.247c10.026,-13.499 15.039,-31.793 15.039,-54.883c-0,-22.396 -5.035,-40.365 -15.104,-53.907c-10.07,-13.541 -23.394,-20.312 -39.974,-20.312c-16.754,-0 -30.143,6.771 -40.169,20.312c-10.026,13.542 -15.039,31.641 -15.039,54.297c-0,22.483 4.991,40.56 14.973,54.232c9.983,13.672 23.134,20.508 39.454,20.508Z" style="fill:#fff;fill-rule:nonzero;"/><path d="M562.073,908.382l-0,-192.709l72.135,0c39.149,0 58.724,15.929 58.724,47.787c0,11.892 -3.32,22.721 -9.961,32.487c-6.64,9.765 -15.777,17.252 -27.409,22.461l63.021,89.974l-48.828,-0l-47.786,-78.776l-22.136,-0l0,78.776l-37.76,-0Zm37.76,-105.209l9.245,0c29.08,0 43.62,-11.762 43.62,-35.286c-0,-17.188 -12.978,-25.781 -38.933,-25.781l-13.932,-0l0,61.067Z" style="fill:#fff;fill-rule:nonzero;"/><path d="M1526.46,255.574c-0,27.721 -22.475,50.196 -50.204,50.196c-27.721,-0 -50.196,-22.475 -50.196,-50.196c-0,-27.721 22.475,-50.196 50.196,-50.196c27.729,0 50.204,22.475 50.204,50.196" style="fill:#da007a;fill-rule:nonzero;"/><path d="M1637.54,507.096c-0,27.716 -22.471,50.195 -50.204,50.195c-27.717,0 -50.192,-22.479 -50.192,-50.195c-0,-27.725 22.475,-50.205 50.192,-50.205c27.733,0 50.204,22.48 50.204,50.205" style="fill:#da007a;fill-rule:nonzero;"/><path d="M1397.46,380.594c0,27.721 -22.471,50.2 -50.2,50.2c-27.721,0 -50.192,-22.479 -50.192,-50.2c0,-27.72 22.471,-50.195 50.192,-50.195c27.729,-0 50.2,22.475 50.2,50.195" style="fill:#da007a;fill-rule:nonzero;"/><path d="M1467.93,313.441l-0,333.33l16.667,-0l-0,-333.325c-2.725,0.383 -5.492,0.65 -8.325,0.65c-2.842,-0 -5.609,-0.267 -8.342,-0.655" style="fill:#fff;fill-rule:nonzero;"/><path d="M1484.59,196.388l-0,-81.958l-16.667,-0l-0,81.958c2.733,-0.383 5.5,-0.654 8.342,-0.654c2.833,-0 5.6,0.271 8.325,0.654" style="fill:#fff;fill-rule:nonzero;"/><path d="M1417.39,247.239l-174.121,-0l0,16.666l174.813,0c-0.625,-3.446 -1,-6.975 -1,-10.596c-0,-2.05 0.104,-4.075 0.308,-6.07" style="fill:#fff;fill-rule:nonzero;"/><path d="M1709.26,247.239l-174.129,-0c0.204,1.995 0.308,4.02 0.308,6.07c0,3.621 -0.375,7.15 -1,10.596l174.821,0l0,-16.666Z" style="fill:#fff;fill-rule:nonzero;"/><path d="M1288.75,372.263l-75.733,0l-0,16.667l75.733,-0c-0.391,-2.729 -0.658,-5.496 -0.658,-8.329c-0,-2.838 0.267,-5.609 0.658,-8.338" style="fill:#fff;fill-rule:nonzero;"/><path d="M1739.51,372.263l-333.708,0c0.383,2.729 0.65,5.5 0.65,8.338c-0,2.833 -0.267,5.6 -0.65,8.329l333.708,-0l0,-16.667Z" style="fill:#fff;fill-rule:nonzero;"/><path d="M1612.01,380.594c-0,-152.287 -60.321,-271.579 -137.321,-271.579c-66.742,0 -120.921,89.634 -134.183,212.663c1.712,-0.146 3.441,-0.263 5.195,-0.263c3.992,0 7.888,0.409 11.659,1.163c12.816,-111.317 61.333,-196.896 117.329,-196.896c65.4,-0 120.654,116.737 120.654,254.912c0,23.296 -1.604,45.942 -4.525,67.567c5.8,0.471 11.35,1.792 16.558,3.817c3.005,-22.684 4.634,-46.584 4.634,-71.384" style="fill:#fff;fill-rule:nonzero;"/><path d="M1474.69,635.148c-55.992,-0 -104.513,-85.425 -117.329,-196.534c-3.767,0.759 -7.667,1.163 -11.659,1.163c-1.754,-0 -3.483,-0.113 -5.195,-0.258c13.262,122.8 67.441,212.262 134.183,212.262c40.579,0 76.512,-33.096 101.442,-86.629c-5.892,-0.983 -11.48,-2.817 -16.642,-5.404c-21.983,46.308 -52.125,75.4 -84.8,75.4" style="fill:#fff;fill-rule:nonzero;"/><path d="M1528.29,498.762l-285.025,0l0,16.667l285.029,-0c-0.387,-2.733 -0.654,-5.5 -0.654,-8.342c0,-2.833 0.267,-5.6 0.65,-8.325" style="fill:#fff;fill-rule:nonzero;"/><path d="M1709.26,498.762l-63.908,0c0.383,2.725 0.65,5.492 0.65,8.325c-0,2.842 -0.267,5.609 -0.654,8.342l63.912,-0l0,-16.667Z" style="fill:#fff;fill-rule:nonzero;"/><path d="M310.957,346.286l36.137,0c44.25,0 100.305,-1.475 100.305,-59.737c-0,-47.938 -47.942,-56.788 -100.305,-56.788l-36.137,0l-0,116.525Zm-137.175,-213.879l244.85,0c91.454,0 165.937,41.304 165.937,129.804c0,68.588 -32.45,114.313 -98.82,129.8l-0,1.475c44.25,11.8 47.2,50.892 73.012,113.575l50.146,140.13l-143.075,-0l-29.5,-92.925c-28.025,-88.505 -45.725,-110.63 -96.613,-110.63l-28.762,0l-0,203.555l-137.175,-0l-0,-514.784Z" style="fill:#fff;fill-rule:nonzero;"/><path d="M671.587,132.409l174.788,-0l174.05,349.579l1.483,0l-2.216,-349.579l125.375,-0l-0,514.783l-170.359,0l-179.954,-351.791l-1.479,-0l4.429,351.791l-126.117,0l0,-514.783Z" style="fill:#fff;fill-rule:nonzero;"/><path d="M914.621,805.584c-0,44.138 -35.779,79.917 -79.917,79.917c-44.137,-0 -79.917,-35.779 -79.917,-79.917c0,-44.141 35.78,-79.921 79.917,-79.921c44.138,0 79.917,35.78 79.917,79.921" style="fill:#da007a;fill-rule:nonzero;"/><g transform="matrix(4.16667,0,0,4.16667,221.934,17.8665)"><g transform="matrix(24,0,0,24,177.85,216.547)"><path d="M0.093,-0l0,-0.723l0.219,0c0.069,0 0.122,0.016 0.159,0.046c0.037,0.031 0.056,0.075 0.056,0.134c-0,0.096 -0.049,0.164 -0.146,0.205l0.241,0.338l-0.126,-0l-0.205,-0.306l-0.096,0l-0,0.306l-0.102,-0Zm0.102,-0.382l0.033,-0c0.129,-0 0.193,-0.051 0.193,-0.152c0,-0.075 -0.054,-0.112 -0.162,-0.112l-0.064,0l-0,0.264Z" style="fill:#fff;fill-rule:nonzero;"/></g><g transform="matrix(24,0,0,24,190.217,216.547)"><path d="M0.485,-0.017c-0.065,0.019 -0.12,0.029 -0.166,0.029c-0.078,0 -0.142,-0.026 -0.191,-0.078c-0.049,-0.052 -0.074,-0.119 -0.074,-0.202c0,-0.08 0.022,-0.146 0.065,-0.197c0.044,-0.052 0.099,-0.077 0.167,-0.077c0.064,-0 0.114,0.022 0.149,0.068c0.035,0.045 0.052,0.11 0.052,0.194l-0,0.03l-0.335,0c0.014,0.126 0.076,0.189 0.185,0.189c0.04,-0 0.09,-0.011 0.148,-0.032l-0,0.076Zm-0.328,-0.305l0.234,-0c-0,-0.099 -0.037,-0.148 -0.111,-0.148c-0.074,-0 -0.115,0.049 -0.123,0.148Z" style="fill:#fff;fill-rule:nonzero;"/></g><g transform="matrix(24,0,0,24,200.78,216.547)"><path d="M0.096,0.193l0,-0.723l0.096,-0l0,0.099c0.04,-0.074 0.099,-0.111 0.178,-0.111c0.063,0 0.114,0.023 0.15,0.07c0.037,0.046 0.055,0.11 0.055,0.191c0,0.088 -0.021,0.159 -0.062,0.212c-0.042,0.054 -0.096,0.081 -0.164,0.081c-0.063,0 -0.115,-0.024 -0.157,-0.072l0,0.253l-0.096,-0Zm0.096,-0.319c0.05,0.044 0.097,0.066 0.142,0.066c0.092,-0 0.139,-0.071 0.139,-0.211c-0,-0.125 -0.041,-0.187 -0.123,-0.187c-0.054,-0 -0.107,0.029 -0.158,0.087l0,0.245Z" style="fill:#fff;fill-rule:nonzero;"/></g><g transform="matrix(24,0,0,24,213.077,216.547)"><path d="M0.096,-0l0,-0.53l0.096,-0l0,0.099c0.038,-0.074 0.094,-0.111 0.166,-0.111c0.01,0 0.02,0.001 0.031,0.002l0,0.09c-0.016,-0.005 -0.031,-0.008 -0.044,-0.008c-0.061,-0 -0.112,0.036 -0.153,0.108l0,0.35l-0.096,0Z" style="fill:#fff;fill-rule:nonzero;"/></g><g transform="matrix(24,0,0,24,220.089,216.547)"><path d="M0.304,0.012c-0.076,0 -0.137,-0.025 -0.182,-0.075c-0.045,-0.051 -0.068,-0.118 -0.068,-0.202c0,-0.085 0.023,-0.153 0.068,-0.203c0.046,-0.049 0.107,-0.074 0.185,-0.074c0.078,0 0.14,0.025 0.185,0.074c0.045,0.05 0.068,0.117 0.068,0.202c0,0.086 -0.023,0.155 -0.068,0.204c-0.046,0.049 -0.109,0.074 -0.188,0.074Zm0.001,-0.072c0.102,-0 0.153,-0.069 0.153,-0.206c0,-0.136 -0.05,-0.204 -0.151,-0.204c-0.1,0 -0.15,0.068 -0.15,0.205c-0,0.137 0.049,0.205 0.148,0.205Z" style="fill:#fff;fill-rule:nonzero;"/></g><g transform="matrix(24,0,0,24,232.022,216.547)"><path d="M0.437,-0l-0,-0.1c-0.04,0.075 -0.098,0.112 -0.177,0.112c-0.064,0 -0.114,-0.023 -0.151,-0.07c-0.036,-0.046 -0.055,-0.11 -0.055,-0.191c0,-0.088 0.021,-0.159 0.062,-0.212c0.042,-0.054 0.097,-0.081 0.164,-0.081c0.063,0 0.115,0.024 0.157,0.072l-0,-0.301l0.096,0l0,0.771l-0.096,-0Zm-0,-0.404c-0.05,-0.044 -0.097,-0.066 -0.142,-0.066c-0.092,0 -0.138,0.071 -0.138,0.212c-0,0.124 0.041,0.186 0.123,0.186c0.053,-0 0.105,-0.029 0.157,-0.088l-0,-0.244Z" style="fill:#fff;fill-rule:nonzero;"/></g><g transform="matrix(24,0,0,24,244.319,216.547)"><path d="M0.428,-0l-0,-0.1c-0.051,0.075 -0.113,0.112 -0.186,0.112c-0.047,0 -0.083,-0.014 -0.111,-0.043c-0.027,-0.03 -0.041,-0.069 -0.041,-0.118l0,-0.381l0.097,-0l-0,0.349c-0,0.04 0.005,0.068 0.017,0.085c0.011,0.017 0.031,0.025 0.058,0.025c0.058,0 0.114,-0.038 0.166,-0.116l-0,-0.343l0.096,-0l-0,0.53l-0.096,-0Z" style="fill:#fff;fill-rule:nonzero;"/></g><g transform="matrix(24,0,0,24,256.405,216.547)"><path d="M0.303,0.012c-0.071,0 -0.131,-0.026 -0.178,-0.079c-0.047,-0.053 -0.071,-0.12 -0.071,-0.201c0,-0.086 0.024,-0.154 0.07,-0.202c0.047,-0.048 0.112,-0.072 0.196,-0.072c0.041,0 0.087,0.006 0.138,0.017l0,0.081c-0.054,-0.016 -0.098,-0.024 -0.132,-0.024c-0.049,-0 -0.089,0.018 -0.119,0.055c-0.03,0.037 -0.044,0.086 -0.044,0.148c-0,0.059 0.015,0.108 0.045,0.144c0.031,0.037 0.071,0.056 0.121,0.056c0.044,-0 0.089,-0.012 0.135,-0.034l0,0.083c-0.062,0.019 -0.116,0.028 -0.161,0.028Z" style="fill:#fff;fill-rule:nonzero;"/></g><g transform="matrix(24,0,0,24,265.889,216.547)"><path d="M0.096,-0l0,-0.53l0.096,-0l0,0.53l-0.096,-0Zm0,-0.626l0,-0.097l0.096,0l0,0.097l-0.096,-0Z" style="fill:#fff;fill-rule:nonzero;"/></g><g transform="matrix(24,0,0,24,270.018,216.547)"><path d="M0.096,0.006l0,-0.777l0.096,0l0,0.34c0.04,-0.074 0.099,-0.111 0.178,-0.111c0.063,0 0.114,0.023 0.15,0.07c0.037,0.046 0.055,0.11 0.055,0.191c0,0.088 -0.021,0.159 -0.062,0.212c-0.042,0.054 -0.096,0.081 -0.164,0.081c-0.063,0 -0.115,-0.024 -0.157,-0.072l-0.011,0.066l-0.085,-0Zm0.096,-0.132c0.05,0.044 0.097,0.066 0.142,0.066c0.092,-0 0.139,-0.071 0.139,-0.211c-0,-0.125 -0.041,-0.187 -0.123,-0.187c-0.054,-0 -0.107,0.029 -0.158,0.087l0,0.245Z" style="fill:#fff;fill-rule:nonzero;"/></g><g transform="matrix(24,0,0,24,282.315,216.547)"><path d="M0.096,-0l0,-0.53l0.096,-0l0,0.53l-0.096,-0Zm0,-0.626l0,-0.097l0.096,0l0,0.097l-0.096,-0Z" style="fill:#fff;fill-rule:nonzero;"/></g><g transform="matrix(24,0,0,24,286.444,216.547)"><rect x="0.096" y="-0.771" width="0.096" height="0.771" style="fill:#fff;fill-rule:nonzero;"/></g><g transform="matrix(24,0,0,24,290.573,216.547)"><path d="M0.096,-0l0,-0.53l0.096,-0l0,0.53l-0.096,-0Zm0,-0.626l0,-0.097l0.096,0l0,0.097l-0.096,-0Z" style="fill:#fff;fill-rule:nonzero;"/></g><g transform="matrix(24,0,0,24,294.702,216.547)"><path d="M0.255,0.012c-0.048,0 -0.087,-0.014 -0.114,-0.042c-0.027,-0.028 -0.041,-0.067 -0.041,-0.116l0,-0.312l-0.066,-0l-0,-0.072l0.066,-0l0,-0.096l0.096,-0.01l0,0.106l0.139,-0l-0,0.072l-0.139,-0l0,0.294c0,0.069 0.03,0.104 0.09,0.104c0.013,-0 0.028,-0.002 0.047,-0.006l-0,0.066c-0.03,0.008 -0.056,0.012 -0.078,0.012Z" style="fill:#fff;fill-rule:nonzero;"/></g><g transform="matrix(24,0,0,24,300.87,216.547)"><path d="M0.127,0.193l0.086,-0.193l-0.205,-0.53l0.104,-0l0.152,0.399l0.162,-0.399l0.091,-0l-0.29,0.723l-0.1,-0Z" style="fill:#fff;fill-rule:nonzero;"/></g><g transform="matrix(24,0,0,24,316.042,216.547)"><path d="M0.093,-0l0,-0.723l0.101,0l0.364,0.558l-0,-0.558l0.088,0l-0,0.723l-0.101,-0l-0.364,-0.558l0,0.558l-0.088,-0Z" style="fill:#fff;fill-rule:nonzero;"/></g><g transform="matrix(24,0,0,24,330.964,216.547)"><path d="M0.485,-0.017c-0.065,0.019 -0.12,0.029 -0.166,0.029c-0.078,0 -0.142,-0.026 -0.191,-0.078c-0.049,-0.052 -0.074,-0.119 -0.074,-0.202c0,-0.08 0.022,-0.146 0.065,-0.197c0.044,-0.052 0.099,-0.077 0.167,-0.077c0.064,-0 0.114,0.022 0.149,0.068c0.035,0.045 0.052,0.11 0.052,0.194l-0,0.03l-0.335,0c0.014,0.126 0.076,0.189 0.185,0.189c0.04,-0 0.09,-0.011 0.148,-0.032l-0,0.076Zm-0.328,-0.305l0.234,-0c-0,-0.099 -0.037,-0.148 -0.111,-0.148c-0.074,-0 -0.115,0.049 -0.123,0.148Z" style="fill:#fff;fill-rule:nonzero;"/></g><g transform="matrix(24,0,0,24,341.527,216.547)"><path d="M0.255,0.012c-0.048,0 -0.087,-0.014 -0.114,-0.042c-0.027,-0.028 -0.041,-0.067 -0.041,-0.116l0,-0.312l-0.066,-0l-0,-0.072l0.066,-0l0,-0.096l0.096,-0.01l0,0.106l0.139,-0l-0,0.072l-0.139,-0l0,0.294c0,0.069 0.03,0.104 0.09,0.104c0.013,-0 0.028,-0.002 0.047,-0.006l-0,0.066c-0.03,0.008 -0.056,0.012 -0.078,0.012Z" style="fill:#fff;fill-rule:nonzero;"/></g><g transform="matrix(24,0,0,24,347.695,216.547)"><path d="M0.158,-0l-0.152,-0.53l0.094,-0l0.116,0.41l0.126,-0.41l0.096,-0l0.11,0.41l0.133,-0.41l0.083,-0l-0.173,0.53l-0.097,-0l-0.112,-0.411l-0.127,0.411l-0.097,-0Z" style="fill:#fff;fill-rule:nonzero;"/></g><g transform="matrix(24,0,0,24,363.378,216.547)"><path d="M0.304,0.012c-0.076,0 -0.137,-0.025 -0.182,-0.075c-0.045,-0.051 -0.068,-0.118 -0.068,-0.202c0,-0.085 0.023,-0.153 0.068,-0.203c0.046,-0.049 0.107,-0.074 0.185,-0.074c0.078,0 0.14,0.025 0.185,0.074c0.045,0.05 0.068,0.117 0.068,0.202c0,0.086 -0.023,0.155 -0.068,0.204c-0.046,0.049 -0.109,0.074 -0.188,0.074Zm0.001,-0.072c0.102,-0 0.153,-0.069 0.153,-0.206c0,-0.136 -0.05,-0.204 -0.151,-0.204c-0.1,0 -0.15,0.068 -0.15,0.205c-0,0.137 0.049,0.205 0.148,0.205Z" style="fill:#fff;fill-rule:nonzero;"/></g><g transform="matrix(24,0,0,24,375.312,216.547)"><path d="M0.096,-0l0,-0.53l0.096,-0l0,0.099c0.038,-0.074 0.094,-0.111 0.166,-0.111c0.01,0 0.02,0.001 0.031,0.002l0,0.09c-0.016,-0.005 -0.031,-0.008 -0.044,-0.008c-0.061,-0 -0.112,0.036 -0.153,0.108l0,0.35l-0.096,0Z" style="fill:#fff;fill-rule:nonzero;"/></g><g transform="matrix(24,0,0,24,382.324,216.547)"><path d="M0.096,-0l0,-0.771l0.096,0l0,0.498l0.225,-0.257l0.104,-0l-0.215,0.247l0.259,0.283l-0.123,-0l-0.25,-0.272l0,0.272l-0.096,-0Z" style="fill:#fff;fill-rule:nonzero;"/></g></g><path d="M974.44,797.549l-0,-88.827l12.363,0l44.714,68.601l-0,-68.601l10.803,0l-0,88.827l-12.304,-0l-44.773,-68.601l-0,68.601l-10.803,-0Z" style="fill:#fff;fill-rule:nonzero;"/><path d="M1076.73,799.049c-9.323,0 -16.765,-3.091 -22.326,-9.272c-5.562,-6.182 -8.343,-14.455 -8.343,-24.818c0,-10.483 2.791,-18.775 8.373,-24.877c5.581,-6.102 13.154,-9.153 22.716,-9.153c9.563,0 17.135,3.051 22.717,9.153c5.582,6.102 8.373,14.354 8.373,24.757c-0,10.643 -2.801,19.006 -8.403,25.088c-5.602,6.081 -13.304,9.122 -23.107,9.122Zm0.18,-8.882c12.524,-0 18.786,-8.443 18.786,-25.328c-0,-16.685 -6.182,-25.027 -18.546,-25.027c-12.323,-0 -18.485,8.382 -18.485,25.147c-0,16.805 6.082,25.208 18.245,25.208Z" style="fill:#fff;fill-rule:nonzero;"/><path d="M1112.34,797.549l0,-65.18l11.824,0l-0,12.244c4.681,-9.123 11.483,-13.684 20.406,-13.684c1.2,0 2.46,0.1 3.781,0.3l-0,11.043c-2.041,-0.68 -3.841,-1.02 -5.402,-1.02c-7.482,0 -13.744,4.441 -18.785,13.324l-0,42.973l-11.824,-0Z" style="fill:#fff;fill-rule:nonzero;"/><path d="M1155.81,797.549l-18.665,-65.18l11.583,0l14.284,50.475l15.425,-50.475l11.823,0l13.504,50.475l16.385,-50.475l10.143,0l-21.246,65.18l-11.883,-0l-13.805,-50.475l-15.604,50.475l-11.944,-0Z" style="fill:#fff;fill-rule:nonzero;"/><path d="M1262.19,789.266c-7.082,6.522 -13.904,9.783 -20.466,9.783c-5.402,0 -9.883,-1.69 -13.444,-5.071c-3.561,-3.381 -5.342,-7.652 -5.342,-12.814c0,-7.122 2.991,-12.594 8.973,-16.415c5.982,-3.821 14.554,-5.732 25.718,-5.732l2.821,0l-0,-7.862c-0,-7.562 -3.882,-11.343 -11.644,-11.343c-6.242,-0 -12.984,1.92 -20.226,5.761l0,-9.783c7.962,-3.241 15.425,-4.861 22.387,-4.861c7.282,0 12.654,1.64 16.115,4.921c3.461,3.281 5.191,8.383 5.191,15.305l0,29.529c0,6.762 2.081,10.143 6.242,10.143c0.52,-0 1.28,-0.08 2.281,-0.24l0.84,6.542c-2.681,1.28 -5.642,1.92 -8.883,1.92c-5.521,0 -9.042,-3.261 -10.563,-9.783Zm-1.74,-6.422l-0,-16.865l-3.962,-0.12c-6.482,0 -11.723,1.231 -15.724,3.692c-4.001,2.46 -6.002,5.691 -6.002,9.692c-0,2.841 1,5.242 3.001,7.203c2,1.96 4.441,2.94 7.322,2.94c4.921,0 10.043,-2.18 15.365,-6.542Z" style="fill:#fff;fill-rule:nonzero;"/><path d="M1285.85,821.256l10.563,-23.707l-25.207,-65.18l12.784,0l18.665,49.095l19.926,-49.095l11.164,0l-35.591,88.887l-12.304,-0Z" style="fill:#fff;fill-rule:nonzero;"/></g></svg>