<?xml version="1.0" encoding="UTF-8" standalone="no"?><!DOCTYPE svg PUBLIC "-//W3C//DTD SVG 1.1//EN" "http://www.w3.org/Graphics/SVG/1.1/DTD/svg11.dtd"><svg width="100%" height="100%" viewBox="0 0 2026 1030" version="1.1" xmlns="http://www.w3.org/2000/svg" xmlns:xlink="http://www.w3.org/1999/xlink" xml:space="preserve" xmlns:serif="http://www.serif.com/" style="fill-rule:evenodd;clip-rule:evenodd;stroke-miterlimit:10;"><rect id="Artboard1" x="0" y="0" width="2025.29" height="1029.17" style="fill:#112372;"/><g id="Ebene-1" serif:id="Ebene 1"><text x="151.893px" y="908.382px" style="font-family:'LucidaGrande-Bold', 'Lucida Grande', sans-serif;font-weight:600;font-size:266.667px;fill:#1a171b;">N<tspan x="337.647px 537.984px " y="908.382px 908.382px ">OR</tspan></text><path d="M1739.51,380.598c0,-145.291 -117.956,-263.25 -263.246,-263.25c-145.289,0 -263.245,117.959 -263.245,263.25c-0,145.292 117.956,263.25 263.245,263.25c145.29,0 263.246,-117.958 263.246,-263.25Z" style="fill:none;stroke:#fff;stroke-width:16.67px;"/><path d="M1526.46,255.574c-0,27.721 -22.475,50.196 -50.204,50.196c-27.721,-0 -50.196,-22.475 -50.196,-50.196c-0,-27.721 22.475,-50.196 50.196,-50.196c27.729,0 50.204,22.475 50.204,50.196" style="fill:#fff;fill-rule:nonzero;"/><path d="M1637.54,507.096c-0,27.716 -22.471,50.195 -50.204,50.195c-27.717,0 -50.192,-22.479 -50.192,-50.195c-0,-27.725 22.475,-50.205 50.192,-50.205c27.733,0 50.204,22.48 50.204,50.205" style="fill:#fff;fill-rule:nonzero;"/><path d="M1397.46,380.594c0,27.721 -22.471,50.2 -50.2,50.2c-27.721,0 -50.192,-22.479 -50.192,-50.2c0,-27.72 22.471,-50.195 50.192,-50.195c27.729,-0 50.2,22.475 50.2,50.195" style="fill:#fff;fill-rule:nonzero;"/><path d="M1467.93,313.441l-0,333.33l16.667,-0l-0,-333.325c-2.725,0.383 -5.492,0.65 -8.325,0.65c-2.842,-0 -5.609,-0.267 -8.342,-0.655" style="fill:#fff;fill-rule:nonzero;"/><path d="M1484.59,196.388l-0,-81.958l-16.667,-0l-0,81.958c2.733,-0.383 5.5,-0.654 8.342,-0.654c2.833,-0 5.6,0.271 8.325,0.654" style="fill:#fff;fill-rule:nonzero;"/><path d="M1417.39,247.239l-174.121,-0l0,16.666l174.813,0c-0.625,-3.446 -1,-6.975 -1,-10.596c-0,-2.05 0.104,-4.075 0.308,-6.07" style="fill:#fff;fill-rule:nonzero;"/><path d="M1709.26,247.239l-174.129,-0c0.204,1.995 0.308,4.02 0.308,6.07c0,3.621 -0.375,7.15 -1,10.596l174.821,0l0,-16.666Z" style="fill:#fff;fill-rule:nonzero;"/><path d="M1288.75,372.263l-75.733,0l-0,16.667l75.733,-0c-0.391,-2.729 -0.658,-5.496 -0.658,-8.329c-0,-2.838 0.267,-5.609 0.658,-8.338" style="fill:#fff;fill-rule:nonzero;"/><path d="M1739.51,372.263l-333.708,0c0.383,2.729 0.65,5.5 0.65,8.338c-0,2.833 -0.267,5.6 -0.65,8.329l333.708,-0l0,-16.667Z" style="fill:#fff;fill-rule:nonzero;"/><path d="M1612.01,380.594c-0,-152.287 -60.321,-271.579 -137.321,-271.579c-66.742,0 -120.921,89.634 -134.183,212.663c1.712,-0.146 3.441,-0.263 5.195,-0.263c3.992,0 7.888,0.409 11.659,1.163c12.816,-111.317 61.333,-196.896 117.329,-196.896c65.4,-0 120.654,116.737 120.654,254.912c0,23.296 -1.604,45.942 -4.525,67.567c5.8,0.471 11.35,1.792 16.558,3.817c3.005,-22.684 4.634,-46.584 4.634,-71.384" style="fill:#fff;fill-rule:nonzero;"/><path d="M1474.69,635.148c-55.992,-0 -104.513,-85.425 -117.329,-196.534c-3.767,0.759 -7.667,1.163 -11.659,1.163c-1.754,-0 -3.483,-0.113 -5.195,-0.258c13.262,122.8 67.441,212.262 134.183,212.262c40.579,0 76.512,-33.096 101.442,-86.629c-5.892,-0.983 -11.48,-2.817 -16.642,-5.404c-21.983,46.308 -52.125,75.4 -84.8,75.4" style="fill:#fff;fill-rule:nonzero;"/><path d="M1528.29,498.762l-285.025,0l0,16.667l285.029,-0c-0.387,-2.733 -0.654,-5.5 -0.654,-8.342c0,-2.833 0.267,-5.6 0.65,-8.325" style="fill:#fff;fill-rule:nonzero;"/><path d="M1709.26,498.762l-63.908,0c0.383,2.725 0.65,5.492 0.65,8.325c-0,2.842 -0.267,5.609 -0.654,8.342l63.912,-0l0,-16.667Z" style="fill:#fff;fill-rule:nonzero;"/><path d="M310.957,346.286l36.137,0c44.25,0 100.305,-1.475 100.305,-59.737c-0,-47.938 -47.942,-56.788 -100.305,-56.788l-36.137,0l-0,116.525Zm-137.175,-213.879l244.85,0c91.454,0 165.937,41.304 165.937,129.804c0,68.588 -32.45,114.313 -98.82,129.8l-0,1.475c44.25,11.8 47.2,50.892 73.012,113.575l50.146,140.13l-143.075,-0l-29.5,-92.925c-28.025,-88.505 -45.725,-110.63 -96.613,-110.63l-28.762,0l-0,203.555l-137.175,-0l-0,-514.784Z" style="fill:#112372;fill-rule:nonzero;"/><path d="M671.587,132.409l174.788,-0l174.05,349.579l1.483,0l-2.216,-349.579l125.375,-0l-0,514.783l-170.359,0l-179.954,-351.791l-1.479,-0l4.429,351.791l-126.117,0l0,-514.783Z" style="fill:#112372;fill-rule:nonzero;"/><path d="M914.621,805.584c-0,44.138 -35.779,79.917 -79.917,79.917c-44.137,-0 -79.917,-35.779 -79.917,-79.917c0,-44.141 35.78,-79.921 79.917,-79.921c44.138,0 79.917,35.78 79.917,79.921" style="fill:#da007a;fill-rule:nonzero;"/><g transform="matrix(4.16667,0,0,4.16667,221.934,17.8665)"><text x="177.85px" y="216.547px" style="font-family:'LucidaGrande', 'Lucida Grande', sans-serif;font-weight:500;font-size:24px;fill:#112372;">R<tspan x="190.217px 200.78px 213.077px 220.089px 232.022px 244.319px 256.405px 265.889px 270.018px 282.315px 286.444px 290.573px 294.702px 300.87px " y="216.547px 216.547px 216.547px 216.547px 216.547px 216.547px 216.547px 216.547px 216.547px 216.547px 216.547px 216.547px 216.547px 216.547px ">eproducibility</tspan></text><text x="316.042px" y="216.547px" style="font-family:'LucidaGrande', 'Lucida Grande', sans-serif;font-weight:500;font-size:24px;fill:#112372;">N<tspan x="330.964px 341.527px 347.695px 363.378px 375.312px 382.324px " y="216.547px 216.547px 216.547px 216.547px 216.547px 216.547px ">etwork</tspan></text></g><text x="962.976px" y="797.549px" style="font-family:'LucidaGrande', 'Lucida Grande', sans-serif;font-weight:500;font-size:122.917px;fill:#112372;">N<tspan x="1039.4px 1100.52px 1136.43px 1216.75px 1270.25px " y="797.549px 797.549px 797.549px 797.549px 797.549px ">orway</tspan></text><text x="151.893px" y="908.382px" style="font-family:'LucidaGrande-Bold', 'Lucida Grande', sans-serif;font-weight:600;font-size:266.667px;fill:#fff;">N<tspan x="337.647px 537.984px " y="908.382px 908.382px ">OR</tspan></text><path d="M1526.46,255.574c-0,27.721 -22.475,50.196 -50.204,50.196c-27.721,-0 -50.196,-22.475 -50.196,-50.196c-0,-27.721 22.475,-50.196 50.196,-50.196c27.729,0 50.204,22.475 50.204,50.196" style="fill:#da007a;fill-rule:nonzero;"/><path d="M1637.54,507.096c-0,27.716 -22.471,50.195 -50.204,50.195c-27.717,0 -50.192,-22.479 -50.192,-50.195c-0,-27.725 22.475,-50.205 50.192,-50.205c27.733,0 50.204,22.48 50.204,50.205" style="fill:#da007a;fill-rule:nonzero;"/><path d="M1397.46,380.594c0,27.721 -22.471,50.2 -50.2,50.2c-27.721,0 -50.192,-22.479 -50.192,-50.2c0,-27.72 22.471,-50.195 50.192,-50.195c27.729,-0 50.2,22.475 50.2,50.195" style="fill:#da007a;fill-rule:nonzero;"/><path d="M1467.93,313.441l-0,333.33l16.667,-0l-0,-333.325c-2.725,0.383 -5.492,0.65 -8.325,0.65c-2.842,-0 -5.609,-0.267 -8.342,-0.655" style="fill:#fff;fill-rule:nonzero;"/><path d="M1484.59,196.388l-0,-81.958l-16.667,-0l-0,81.958c2.733,-0.383 5.5,-0.654 8.342,-0.654c2.833,-0 5.6,0.271 8.325,0.654" style="fill:#fff;fill-rule:nonzero;"/><path d="M1417.39,247.239l-174.121,-0l0,16.666l174.813,0c-0.625,-3.446 -1,-6.975 -1,-10.596c-0,-2.05 0.104,-4.075 0.308,-6.07" style="fill:#fff;fill-rule:nonzero;"/><path d="M1709.26,247.239l-174.129,-0c0.204,1.995 0.308,4.02 0.308,6.07c0,3.621 -0.375,7.15 -1,10.596l174.821,0l0,-16.666Z" style="fill:#fff;fill-rule:nonzero;"/><path d="M1288.75,372.263l-75.733,0l-0,16.667l75.733,-0c-0.391,-2.729 -0.658,-5.496 -0.658,-8.329c-0,-2.838 0.267,-5.609 0.658,-8.338" style="fill:#fff;fill-rule:nonzero;"/><path d="M1739.51,372.263l-333.708,0c0.383,2.729 0.65,5.5 0.65,8.338c-0,2.833 -0.267,5.6 -0.65,8.329l333.708,-0l0,-16.667Z" style="fill:#fff;fill-rule:nonzero;"/><path d="M1612.01,380.594c-0,-152.287 -60.321,-271.579 -137.321,-271.579c-66.742,0 -120.921,89.634 -134.183,212.663c1.712,-0.146 3.441,-0.263 5.195,-0.263c3.992,0 7.888,0.409 11.659,1.163c12.816,-111.317 61.333,-196.896 117.329,-196.896c65.4,-0 120.654,116.737 120.654,254.912c0,23.296 -1.604,45.942 -4.525,67.567c5.8,0.471 11.35,1.792 16.558,3.817c3.005,-22.684 4.634,-46.584 4.634,-71.384" style="fill:#fff;fill-rule:nonzero;"/><path d="M1474.69,635.148c-55.992,-0 -104.513,-85.425 -117.329,-196.534c-3.767,0.759 -7.667,1.163 -11.659,1.163c-1.754,-0 -3.483,-0.113 -5.195,-0.258c13.262,122.8 67.441,212.262 134.183,212.262c40.579,0 76.512,-33.096 101.442,-86.629c-5.892,-0.983 -11.48,-2.817 -16.642,-5.404c-21.983,46.308 -52.125,75.4 -84.8,75.4" style="fill:#fff;fill-rule:nonzero;"/><path d="M1528.29,498.762l-285.025,0l0,16.667l285.029,-0c-0.387,-2.733 -0.654,-5.5 -0.654,-8.342c0,-2.833 0.267,-5.6 0.65,-8.325" style="fill:#fff;fill-rule:nonzero;"/><path d="M1709.26,498.762l-63.908,0c0.383,2.725 0.65,5.492 0.65,8.325c-0,2.842 -0.267,5.609 -0.654,8.342l63.912,-0l0,-16.667Z" style="fill:#fff;fill-rule:nonzero;"/><path d="M310.957,346.286l36.137,0c44.25,0 100.305,-1.475 100.305,-59.737c-0,-47.938 -47.942,-56.788 -100.305,-56.788l-36.137,0l-0,116.525Zm-137.175,-213.879l244.85,0c91.454,0 165.937,41.304 165.937,129.804c0,68.588 -32.45,114.313 -98.82,129.8l-0,1.475c44.25,11.8 47.2,50.892 73.012,113.575l50.146,140.13l-143.075,-0l-29.5,-92.925c-28.025,-88.505 -45.725,-110.63 -96.613,-110.63l-28.762,0l-0,203.555l-137.175,-0l-0,-514.784Z" style="fill:#fff;fill-rule:nonzero;"/><path d="M671.587,132.409l174.788,-0l174.05,349.579l1.483,0l-2.216,-349.579l125.375,-0l-0,514.783l-170.359,0l-179.954,-351.791l-1.479,-0l4.429,351.791l-126.117,0l0,-514.783Z" style="fill:#fff;fill-rule:nonzero;"/><path d="M914.621,805.584c-0,44.138 -35.779,79.917 -79.917,79.917c-44.137,-0 -79.917,-35.779 -79.917,-79.917c0,-44.141 35.78,-79.921 79.917,-79.921c44.138,0 79.917,35.78 79.917,79.921" style="fill:#da007a;fill-rule:nonzero;"/><g transform="matrix(4.16667,0,0,4.16667,221.934,17.8665)"><text x="177.85px" y="216.547px" style="font-family:'LucidaGrande', 'Lucida Grande', sans-serif;font-weight:500;font-size:24px;fill:#fff;">R<tspan x="190.217px 200.78px 213.077px 220.089px 232.022px 244.319px 256.405px 265.889px 270.018px 282.315px 286.444px 290.573px 294.702px 300.87px " y="216.547px 216.547px 216.547px 216.547px 216.547px 216.547px 216.547px 216.547px 216.547px 216.547px 216.547px 216.547px 216.547px 216.547px ">eproducibility</tspan></text><text x="316.042px" y="216.547px" style="font-family:'LucidaGrande', 'Lucida Grande', sans-serif;font-weight:500;font-size:24px;fill:#fff;">N<tspan x="330.964px 341.527px 347.695px 363.378px 375.312px 382.324px " y="216.547px 216.547px 216.547px 216.547px 216.547px 216.547px ">etwork</tspan></text></g><text x="962.976px" y="797.549px" style="font-family:'LucidaGrande', 'Lucida Grande', sans-serif;font-weight:500;font-size:122.917px;fill:#fff;">N<tspan x="1039.4px 1100.52px 1136.43px 1216.75px 1270.25px " y="797.549px 797.549px 797.549px 797.549px 797.549px ">orway</tspan></text></g></svg>