<?xml version="1.0" encoding="UTF-8" standalone="no"?><!DOCTYPE svg PUBLIC "-//W3C//DTD SVG 1.1//EN" "http://www.w3.org/Graphics/SVG/1.1/DTD/svg11.dtd"><svg width="100%" height="100%" viewBox="0 0 1417 389" version="1.1" xmlns="http://www.w3.org/2000/svg" xmlns:xlink="http://www.w3.org/1999/xlink" xml:space="preserve" xmlns:serif="http://www.serif.com/" style="fill-rule:evenodd;clip-rule:evenodd;stroke-miterlimit:10;"><rect id="Artboard2" x="0" y="0" width="1416.21" height="388.643" style="fill:none;"/><clipPath id="_clip1"><rect x="0" y="0" width="1416.21" height="388.643"/></clipPath><g clip-path="url(#_clip1)"><text x="48.964px" y="305.037px" style="font-family:'LucidaGrande-Bold', 'Lucida Grande', sans-serif;font-weight:600;font-size:266.667px;fill:#1a171b;">N<tspan x="234.718px 435.055px " y="305.037px 305.037px ">OR</tspan></text><text x="980.293px" y="305.037px" style="font-family:'LucidaGrande-Bold', 'Lucida Grande', sans-serif;font-weight:600;font-size:266.667px;fill:#1a171b;">R<tspan x="1145.08px " y="305.037px ">N</tspan></text><g><path d="M947.79,202.356c-0,-86.03 -69.845,-155.876 -155.874,-155.876c-86.028,0 -155.873,69.846 -155.873,155.876c0,86.03 69.845,155.875 155.873,155.875c86.029,0 155.874,-69.845 155.874,-155.875Z" style="fill:none;stroke:#1a171b;stroke-width:16.67px;"/><path d="M821.641,128.327c0,16.414 -13.308,29.721 -29.727,29.721c-16.414,0 -29.722,-13.307 -29.722,-29.721c0,-16.415 13.308,-29.722 29.722,-29.722c16.419,-0 29.727,13.307 29.727,29.722" style="fill:#da007a;fill-rule:nonzero;"/><path d="M887.411,277.258c0,16.411 -13.305,29.721 -29.727,29.721c-16.411,0 -29.719,-13.31 -29.719,-29.721c0,-16.417 13.308,-29.727 29.719,-29.727c16.422,-0 29.727,13.31 29.727,29.727" style="fill:#da007a;fill-rule:nonzero;"/><path d="M745.26,202.354c0,16.414 -13.305,29.724 -29.724,29.724c-16.414,0 -29.72,-13.31 -29.72,-29.724c0,-16.414 13.306,-29.722 29.72,-29.722c16.419,-0 29.724,13.308 29.724,29.722" style="fill:#da007a;fill-rule:nonzero;"/><path d="M786.983,162.591l-0,197.371l9.868,-0l0,-197.368c-1.613,0.226 -3.251,0.384 -4.929,0.384c-1.683,0 -3.321,-0.158 -4.939,-0.387" style="fill:#1a171b;fill-rule:nonzero;"/><path d="M796.851,93.281l0,-48.529l-9.868,0l-0,48.529c1.618,-0.227 3.256,-0.387 4.939,-0.387c1.678,0 3.316,0.16 4.929,0.387" style="fill:#1a171b;fill-rule:nonzero;"/><path d="M757.056,123.391l-103.1,-0l-0,9.869l103.51,-0c-0.37,-2.041 -0.592,-4.13 -0.592,-6.274c-0,-1.214 0.062,-2.413 0.182,-3.595" style="fill:#1a171b;fill-rule:nonzero;"/><path d="M929.878,123.391l-103.105,-0c0.121,1.182 0.183,2.381 0.183,3.595c-0,2.144 -0.222,4.233 -0.592,6.274l103.514,-0l0,-9.869Z" style="fill:#1a171b;fill-rule:nonzero;"/><path d="M680.887,197.421l-44.843,-0l0,9.868l44.843,0c-0.232,-1.616 -0.389,-3.254 -0.389,-4.932c-0,-1.68 0.157,-3.32 0.389,-4.936" style="fill:#1a171b;fill-rule:nonzero;"/><path d="M947.79,197.421l-197.596,-0c0.227,1.616 0.385,3.256 0.385,4.936c0,1.678 -0.158,3.316 -0.385,4.932l197.596,0l-0,-9.868Z" style="fill:#1a171b;fill-rule:nonzero;"/><path d="M872.298,202.354c-0,-90.173 -35.718,-160.808 -81.311,-160.808c-39.519,0 -71.6,53.074 -79.453,125.922c1.014,-0.086 2.038,-0.156 3.077,-0.156c2.364,0 4.67,0.242 6.903,0.689c7.589,-65.913 36.317,-116.586 69.473,-116.586c38.725,-0 71.442,69.122 71.442,150.939c-0,13.794 -0.95,27.203 -2.679,40.007c3.434,0.279 6.72,1.061 9.804,2.26c1.779,-13.431 2.744,-27.583 2.744,-42.267" style="fill:#1a171b;fill-rule:nonzero;"/><path d="M790.987,353.08c-33.154,-0 -61.884,-50.582 -69.473,-116.372c-2.23,0.449 -4.539,0.689 -6.903,0.689c-1.039,-0 -2.063,-0.067 -3.077,-0.153c7.853,72.712 39.934,125.685 79.453,125.685c24.028,-0 45.305,-19.597 60.066,-51.295c-3.489,-0.582 -6.797,-1.668 -9.854,-3.2c-13.017,27.42 -30.864,44.646 -50.212,44.646" style="fill:#1a171b;fill-rule:nonzero;"/><path d="M822.725,272.323l-168.769,0l0,9.869l168.772,-0c-0.229,-1.619 -0.387,-3.257 -0.387,-4.939c-0,-1.678 0.158,-3.316 0.384,-4.93" style="fill:#1a171b;fill-rule:nonzero;"/><path d="M929.878,272.323l-37.841,0c0.227,1.614 0.385,3.252 0.385,4.93c-0,1.682 -0.158,3.32 -0.387,4.939l37.843,-0l0,-9.869Z" style="fill:#1a171b;fill-rule:nonzero;"/><path d="M929.878,272.323l-37.841,0c0.227,1.614 0.385,3.252 0.385,4.93c-0,1.682 -0.158,3.32 -0.387,4.939l37.843,-0l0,-9.869Z" style="fill:#1a171b;fill-rule:nonzero;"/></g></g></svg>