<?xml version="1.0" encoding="UTF-8" standalone="no"?>
<!DOCTYPE svg PUBLIC "-//W3C//DTD SVG 1.1//EN" "http://www.w3.org/Graphics/SVG/1.1/DTD/svg11.dtd">
<svg width="100%" height="100%" viewBox="0 0 2026 1030" version="1.1" xmlns="http://www.w3.org/2000/svg" xmlns:xlink="http://www.w3.org/1999/xlink" xml:space="preserve" xmlns:serif="http://www.serif.com/" style="fill-rule:evenodd;clip-rule:evenodd;stroke-miterlimit:10;">
    <g id="Ebene-1" serif:id="Ebene 1">
        <path d="M175.982,908.382L175.982,715.673L211.268,715.673L300.591,847.314L300.591,715.673L332.753,715.673L332.753,908.382L296.815,908.382L208.143,776.741L208.143,908.382L175.982,908.382Z" style="fill:rgb(26,23,27);fill-rule:nonzero;"/>
        <path d="M446.241,913.199C416.987,913.199 393.593,903.998 376.058,885.595C358.524,867.192 349.756,842.67 349.756,812.028C349.756,781.038 358.567,756.429 376.189,738.199C393.81,719.97 417.595,710.856 447.543,710.856C477.317,710.856 501.037,719.97 518.702,738.199C536.367,756.429 545.199,780.908 545.199,811.637C545.199,843.061 536.367,867.844 518.702,885.986C501.037,904.128 476.883,913.199 446.241,913.199ZM446.762,886.637C463.949,886.637 477.556,879.888 487.582,866.39C497.608,852.891 502.621,834.597 502.621,811.507C502.621,789.111 497.586,771.142 487.517,757.6C477.447,744.059 464.123,737.288 447.543,737.288C430.789,737.288 417.4,744.059 407.374,757.6C397.348,771.142 392.335,789.241 392.335,811.897C392.335,834.38 397.326,852.457 407.308,866.129C417.291,879.801 430.442,886.637 446.762,886.637Z" style="fill:rgb(26,23,27);fill-rule:nonzero;"/>
        <path d="M562.073,908.382L562.073,715.673L634.208,715.673C673.357,715.673 692.932,731.602 692.932,763.46C692.932,775.352 689.612,786.181 682.971,795.947C676.331,805.712 667.194,813.199 655.562,818.408L718.583,908.382L669.755,908.382L621.969,829.606L599.833,829.606L599.833,908.382L562.073,908.382ZM599.833,803.173L609.078,803.173C638.158,803.173 652.698,791.411 652.698,767.887C652.698,750.699 639.72,742.106 613.765,742.106L599.833,742.106L599.833,803.173Z" style="fill:rgb(26,23,27);fill-rule:nonzero;"/>
        <path d="M1739.51,380.598C1739.51,235.307 1621.55,117.348 1476.26,117.348C1330.98,117.348 1213.02,235.307 1213.02,380.598C1213.02,525.89 1330.98,643.848 1476.26,643.848C1621.55,643.848 1739.51,525.89 1739.51,380.598Z" style="fill:none;stroke:rgb(26,23,27);stroke-width:16.67px;"/>
        <path d="M1526.46,255.574C1526.46,283.295 1503.99,305.77 1476.26,305.77C1448.54,305.77 1426.06,283.295 1426.06,255.574C1426.06,227.853 1448.54,205.378 1476.26,205.378C1503.99,205.378 1526.46,227.853 1526.46,255.574" style="fill:rgb(218,0,122);fill-rule:nonzero;"/>
        <path d="M1637.54,507.096C1637.54,534.812 1615.07,557.291 1587.34,557.291C1559.62,557.291 1537.14,534.812 1537.14,507.096C1537.14,479.371 1559.62,456.891 1587.34,456.891C1615.07,456.891 1637.54,479.371 1637.54,507.096" style="fill:rgb(218,0,122);fill-rule:nonzero;"/>
        <path d="M1397.46,380.594C1397.46,408.315 1374.99,430.794 1347.26,430.794C1319.54,430.794 1297.07,408.315 1297.07,380.594C1297.07,352.874 1319.54,330.399 1347.26,330.399C1374.99,330.399 1397.46,352.874 1397.46,380.594" style="fill:rgb(218,0,122);fill-rule:nonzero;"/>
        <path d="M1467.93,313.441L1467.93,646.771L1484.6,646.771L1484.6,313.446C1481.87,313.829 1479.11,314.096 1476.27,314.096C1473.43,314.096 1470.66,313.829 1467.93,313.441" style="fill:rgb(26,23,27);fill-rule:nonzero;"/>
        <path d="M1484.59,196.388L1484.59,114.43L1467.92,114.43L1467.92,196.388C1470.66,196.005 1473.42,195.734 1476.27,195.734C1479.1,195.734 1481.87,196.005 1484.59,196.388" style="fill:rgb(26,23,27);fill-rule:nonzero;"/>
        <path d="M1417.39,247.239L1243.27,247.239L1243.27,263.905L1418.08,263.905C1417.46,260.459 1417.08,256.93 1417.08,253.309C1417.08,251.259 1417.19,249.234 1417.39,247.239" style="fill:rgb(26,23,27);fill-rule:nonzero;"/>
        <path d="M1709.26,247.239L1535.13,247.239C1535.34,249.234 1535.44,251.259 1535.44,253.309C1535.44,256.93 1535.06,260.459 1534.44,263.905L1709.26,263.905L1709.26,247.239Z" style="fill:rgb(26,23,27);fill-rule:nonzero;"/>
        <path d="M1288.75,372.263L1213.02,372.263L1213.02,388.93L1288.75,388.93C1288.36,386.201 1288.09,383.434 1288.09,380.601C1288.09,377.763 1288.36,374.992 1288.75,372.263" style="fill:rgb(26,23,27);fill-rule:nonzero;"/>
        <path d="M1739.51,372.263L1405.8,372.263C1406.18,374.992 1406.45,377.763 1406.45,380.601C1406.45,383.434 1406.18,386.201 1405.8,388.93L1739.51,388.93L1739.51,372.263Z" style="fill:rgb(26,23,27);fill-rule:nonzero;"/>
        <path d="M1612.01,380.594C1612.01,228.307 1551.69,109.015 1474.69,109.015C1407.95,109.015 1353.77,198.649 1340.51,321.678C1342.22,321.532 1343.95,321.415 1345.7,321.415C1349.69,321.415 1353.59,321.824 1357.36,322.578C1370.18,211.261 1418.69,125.682 1474.69,125.682C1540.09,125.682 1595.34,242.419 1595.34,380.594C1595.34,403.89 1593.74,426.536 1590.82,448.161C1596.62,448.632 1602.17,449.953 1607.38,451.978C1610.38,429.294 1612.01,405.394 1612.01,380.594" style="fill:rgb(26,23,27);fill-rule:nonzero;"/>
        <path d="M1474.69,635.148C1418.7,635.148 1370.18,549.723 1357.36,438.614C1353.59,439.373 1349.69,439.777 1345.7,439.777C1343.95,439.777 1342.22,439.664 1340.51,439.519C1353.77,562.319 1407.95,651.781 1474.69,651.781C1515.27,651.781 1551.2,618.685 1576.13,565.152C1570.24,564.169 1564.65,562.335 1559.49,559.748C1537.51,606.056 1507.37,635.148 1474.69,635.148" style="fill:rgb(26,23,27);fill-rule:nonzero;"/>
        <path d="M1528.29,498.762L1243.27,498.762L1243.27,515.429L1528.29,515.429C1527.91,512.696 1527.64,509.929 1527.64,507.087C1527.64,504.254 1527.91,501.487 1528.29,498.762" style="fill:rgb(26,23,27);fill-rule:nonzero;"/>
        <path d="M1709.26,498.762L1645.35,498.762C1645.74,501.487 1646,504.254 1646,507.087C1646,509.929 1645.74,512.696 1645.35,515.429L1709.26,515.429L1709.26,498.762Z" style="fill:rgb(26,23,27);fill-rule:nonzero;"/>
        <path d="M310.957,346.286L347.094,346.286C391.344,346.286 447.399,344.811 447.399,286.549C447.399,238.611 399.457,229.761 347.094,229.761L310.957,229.761L310.957,346.286ZM173.782,132.407L418.632,132.407C510.086,132.407 584.569,173.711 584.569,262.211C584.569,330.799 552.119,376.524 485.749,392.011L485.749,393.486C529.999,405.286 532.949,444.378 558.761,507.061L608.907,647.191L465.832,647.191L436.332,554.266C408.307,465.761 390.607,443.636 339.719,443.636L310.957,443.636L310.957,647.191L173.782,647.191L173.782,132.407Z" style="fill:rgb(17,35,114);fill-rule:nonzero;"/>
        <path d="M671.587,132.409L846.375,132.409L1020.43,481.988L1021.91,481.988L1019.69,132.409L1145.07,132.409L1145.07,647.192L974.708,647.192L794.754,295.401L793.275,295.401L797.704,647.192L671.587,647.192L671.587,132.409Z" style="fill:rgb(17,35,114);fill-rule:nonzero;"/>
        <path d="M914.621,805.584C914.621,849.722 878.842,885.501 834.704,885.501C790.567,885.501 754.787,849.722 754.787,805.584C754.787,761.443 790.567,725.663 834.704,725.663C878.842,725.663 914.621,761.443 914.621,805.584" style="fill:rgb(218,0,122);fill-rule:nonzero;"/>
        <g transform="matrix(4.16667,0,0,4.16667,221.934,17.8665)">
            <g transform="matrix(24,0,0,24,177.85,216.547)">
                <path d="M0.093,-0L0.093,-0.723L0.312,-0.723C0.381,-0.723 0.434,-0.707 0.471,-0.677C0.508,-0.646 0.527,-0.602 0.527,-0.543C0.527,-0.447 0.478,-0.379 0.381,-0.338L0.622,0L0.496,0L0.291,-0.306L0.195,-0.306L0.195,0L0.093,0ZM0.195,-0.382L0.228,-0.382C0.357,-0.382 0.421,-0.433 0.421,-0.534C0.421,-0.609 0.367,-0.646 0.259,-0.646L0.195,-0.646L0.195,-0.382Z" style="fill:rgb(17,35,114);fill-rule:nonzero;"/>
            </g>
            <g transform="matrix(24,0,0,24,190.217,216.547)">
                <path d="M0.485,-0.017C0.42,0.002 0.365,0.012 0.319,0.012C0.241,0.012 0.177,-0.014 0.128,-0.066C0.079,-0.118 0.054,-0.185 0.054,-0.268C0.054,-0.348 0.076,-0.414 0.119,-0.465C0.163,-0.517 0.218,-0.542 0.286,-0.542C0.35,-0.542 0.4,-0.52 0.435,-0.474C0.47,-0.429 0.487,-0.364 0.487,-0.28L0.487,-0.25L0.152,-0.25C0.166,-0.124 0.228,-0.061 0.337,-0.061C0.377,-0.061 0.427,-0.072 0.485,-0.093L0.485,-0.017ZM0.157,-0.322L0.391,-0.322C0.391,-0.421 0.354,-0.47 0.28,-0.47C0.206,-0.47 0.165,-0.421 0.157,-0.322Z" style="fill:rgb(17,35,114);fill-rule:nonzero;"/>
            </g>
            <g transform="matrix(24,0,0,24,200.78,216.547)">
                <path d="M0.096,0.193L0.096,-0.53L0.192,-0.53L0.192,-0.431C0.232,-0.505 0.291,-0.542 0.37,-0.542C0.433,-0.542 0.484,-0.519 0.52,-0.472C0.557,-0.426 0.575,-0.362 0.575,-0.281C0.575,-0.193 0.554,-0.122 0.513,-0.069C0.471,-0.015 0.417,0.012 0.349,0.012C0.286,0.012 0.234,-0.012 0.192,-0.06L0.192,0.193L0.096,0.193ZM0.192,-0.126C0.242,-0.082 0.289,-0.06 0.334,-0.06C0.426,-0.06 0.473,-0.131 0.473,-0.271C0.473,-0.396 0.432,-0.458 0.35,-0.458C0.296,-0.458 0.243,-0.429 0.192,-0.371L0.192,-0.126Z" style="fill:rgb(17,35,114);fill-rule:nonzero;"/>
            </g>
            <g transform="matrix(24,0,0,24,213.077,216.547)">
                <path d="M0.096,-0L0.096,-0.53L0.192,-0.53L0.192,-0.431C0.23,-0.505 0.286,-0.542 0.358,-0.542C0.368,-0.542 0.378,-0.541 0.389,-0.54L0.389,-0.45C0.373,-0.455 0.358,-0.458 0.345,-0.458C0.284,-0.458 0.233,-0.422 0.192,-0.35L0.192,-0L0.096,-0Z" style="fill:rgb(17,35,114);fill-rule:nonzero;"/>
            </g>
            <g transform="matrix(24,0,0,24,220.089,216.547)">
                <path d="M0.304,0.012C0.228,0.012 0.167,-0.013 0.122,-0.063C0.077,-0.114 0.054,-0.181 0.054,-0.265C0.054,-0.35 0.077,-0.418 0.122,-0.468C0.168,-0.517 0.229,-0.542 0.307,-0.542C0.385,-0.542 0.447,-0.517 0.492,-0.468C0.537,-0.418 0.56,-0.351 0.56,-0.266C0.56,-0.18 0.537,-0.111 0.492,-0.062C0.446,-0.013 0.383,0.012 0.304,0.012ZM0.305,-0.06C0.407,-0.06 0.458,-0.129 0.458,-0.266C0.458,-0.402 0.408,-0.47 0.307,-0.47C0.207,-0.47 0.157,-0.402 0.157,-0.265C0.157,-0.128 0.206,-0.06 0.305,-0.06Z" style="fill:rgb(17,35,114);fill-rule:nonzero;"/>
            </g>
            <g transform="matrix(24,0,0,24,232.022,216.547)">
                <path d="M0.437,-0L0.437,-0.1C0.397,-0.025 0.339,0.012 0.26,0.012C0.196,0.012 0.146,-0.011 0.109,-0.058C0.073,-0.104 0.054,-0.168 0.054,-0.249C0.054,-0.337 0.075,-0.408 0.116,-0.461C0.158,-0.515 0.213,-0.542 0.28,-0.542C0.343,-0.542 0.395,-0.518 0.437,-0.47L0.437,-0.771L0.533,-0.771L0.533,0L0.437,0ZM0.437,-0.404C0.387,-0.448 0.34,-0.47 0.295,-0.47C0.203,-0.47 0.157,-0.399 0.157,-0.258C0.157,-0.134 0.198,-0.072 0.28,-0.072C0.333,-0.072 0.385,-0.101 0.437,-0.16L0.437,-0.404Z" style="fill:rgb(17,35,114);fill-rule:nonzero;"/>
            </g>
            <g transform="matrix(24,0,0,24,244.319,216.547)">
                <path d="M0.428,-0L0.428,-0.1C0.377,-0.025 0.315,0.012 0.242,0.012C0.195,0.012 0.159,-0.002 0.131,-0.031C0.104,-0.061 0.09,-0.1 0.09,-0.149L0.09,-0.53L0.187,-0.53L0.187,-0.181C0.187,-0.141 0.192,-0.113 0.204,-0.096C0.215,-0.079 0.235,-0.071 0.262,-0.071C0.32,-0.071 0.376,-0.109 0.428,-0.187L0.428,-0.53L0.524,-0.53L0.524,0L0.428,0Z" style="fill:rgb(17,35,114);fill-rule:nonzero;"/>
            </g>
            <g transform="matrix(24,0,0,24,256.405,216.547)">
                <path d="M0.303,0.012C0.232,0.012 0.172,-0.014 0.125,-0.067C0.078,-0.12 0.054,-0.187 0.054,-0.268C0.054,-0.354 0.078,-0.422 0.124,-0.47C0.171,-0.518 0.236,-0.542 0.32,-0.542C0.361,-0.542 0.407,-0.536 0.458,-0.525L0.458,-0.444C0.404,-0.46 0.36,-0.468 0.326,-0.468C0.277,-0.468 0.237,-0.45 0.207,-0.413C0.177,-0.376 0.163,-0.327 0.163,-0.265C0.163,-0.206 0.178,-0.157 0.208,-0.121C0.239,-0.084 0.279,-0.065 0.329,-0.065C0.373,-0.065 0.418,-0.077 0.464,-0.099L0.464,-0.016C0.402,0.003 0.348,0.012 0.303,0.012Z" style="fill:rgb(17,35,114);fill-rule:nonzero;"/>
            </g>
            <g transform="matrix(24,0,0,24,265.889,216.547)">
                <path d="M0.096,-0L0.096,-0.53L0.192,-0.53L0.192,0L0.096,0ZM0.096,-0.626L0.096,-0.723L0.192,-0.723L0.192,-0.626L0.096,-0.626Z" style="fill:rgb(17,35,114);fill-rule:nonzero;"/>
            </g>
            <g transform="matrix(24,0,0,24,270.018,216.547)">
                <path d="M0.096,0.006L0.096,-0.771L0.192,-0.771L0.192,-0.431C0.232,-0.505 0.291,-0.542 0.37,-0.542C0.433,-0.542 0.484,-0.519 0.52,-0.472C0.557,-0.426 0.575,-0.362 0.575,-0.281C0.575,-0.193 0.554,-0.122 0.513,-0.069C0.471,-0.015 0.417,0.012 0.349,0.012C0.286,0.012 0.234,-0.012 0.192,-0.06L0.181,0.006L0.096,0.006ZM0.192,-0.126C0.242,-0.082 0.289,-0.06 0.334,-0.06C0.426,-0.06 0.473,-0.131 0.473,-0.271C0.473,-0.396 0.432,-0.458 0.35,-0.458C0.296,-0.458 0.243,-0.429 0.192,-0.371L0.192,-0.126Z" style="fill:rgb(17,35,114);fill-rule:nonzero;"/>
            </g>
            <g transform="matrix(24,0,0,24,282.315,216.547)">
                <path d="M0.096,-0L0.096,-0.53L0.192,-0.53L0.192,0L0.096,0ZM0.096,-0.626L0.096,-0.723L0.192,-0.723L0.192,-0.626L0.096,-0.626Z" style="fill:rgb(17,35,114);fill-rule:nonzero;"/>
            </g>
            <g transform="matrix(24,0,0,24,286.444,216.547)">
                <rect x="0.096" y="-0.771" width="0.096" height="0.771" style="fill:rgb(17,35,114);"/>
            </g>
            <g transform="matrix(24,0,0,24,290.573,216.547)">
                <path d="M0.096,-0L0.096,-0.53L0.192,-0.53L0.192,0L0.096,0ZM0.096,-0.626L0.096,-0.723L0.192,-0.723L0.192,-0.626L0.096,-0.626Z" style="fill:rgb(17,35,114);fill-rule:nonzero;"/>
            </g>
            <g transform="matrix(24,0,0,24,294.702,216.547)">
                <path d="M0.255,0.012C0.207,0.012 0.168,-0.002 0.141,-0.03C0.114,-0.058 0.1,-0.097 0.1,-0.146L0.1,-0.458L0.034,-0.458L0.034,-0.53L0.1,-0.53L0.1,-0.626L0.196,-0.636L0.196,-0.53L0.335,-0.53L0.335,-0.458L0.196,-0.458L0.196,-0.164C0.196,-0.095 0.226,-0.06 0.286,-0.06C0.299,-0.06 0.314,-0.062 0.333,-0.066L0.333,-0C0.303,0.008 0.277,0.012 0.255,0.012Z" style="fill:rgb(17,35,114);fill-rule:nonzero;"/>
            </g>
            <g transform="matrix(24,0,0,24,300.87,216.547)">
                <path d="M0.127,0.193L0.213,0L0.008,-0.53L0.112,-0.53L0.264,-0.131L0.426,-0.53L0.517,-0.53L0.227,0.193L0.127,0.193Z" style="fill:rgb(17,35,114);fill-rule:nonzero;"/>
            </g>
            <g transform="matrix(24,0,0,24,316.042,216.547)">
                <path d="M0.093,-0L0.093,-0.723L0.194,-0.723L0.558,-0.165L0.558,-0.723L0.646,-0.723L0.646,0L0.545,0L0.181,-0.558L0.181,0L0.093,0Z" style="fill:rgb(17,35,114);fill-rule:nonzero;"/>
            </g>
            <g transform="matrix(24,0,0,24,330.964,216.547)">
                <path d="M0.485,-0.017C0.42,0.002 0.365,0.012 0.319,0.012C0.241,0.012 0.177,-0.014 0.128,-0.066C0.079,-0.118 0.054,-0.185 0.054,-0.268C0.054,-0.348 0.076,-0.414 0.119,-0.465C0.163,-0.517 0.218,-0.542 0.286,-0.542C0.35,-0.542 0.4,-0.52 0.435,-0.474C0.47,-0.429 0.487,-0.364 0.487,-0.28L0.487,-0.25L0.152,-0.25C0.166,-0.124 0.228,-0.061 0.337,-0.061C0.377,-0.061 0.427,-0.072 0.485,-0.093L0.485,-0.017ZM0.157,-0.322L0.391,-0.322C0.391,-0.421 0.354,-0.47 0.28,-0.47C0.206,-0.47 0.165,-0.421 0.157,-0.322Z" style="fill:rgb(17,35,114);fill-rule:nonzero;"/>
            </g>
            <g transform="matrix(24,0,0,24,341.527,216.547)">
                <path d="M0.255,0.012C0.207,0.012 0.168,-0.002 0.141,-0.03C0.114,-0.058 0.1,-0.097 0.1,-0.146L0.1,-0.458L0.034,-0.458L0.034,-0.53L0.1,-0.53L0.1,-0.626L0.196,-0.636L0.196,-0.53L0.335,-0.53L0.335,-0.458L0.196,-0.458L0.196,-0.164C0.196,-0.095 0.226,-0.06 0.286,-0.06C0.299,-0.06 0.314,-0.062 0.333,-0.066L0.333,-0C0.303,0.008 0.277,0.012 0.255,0.012Z" style="fill:rgb(17,35,114);fill-rule:nonzero;"/>
            </g>
            <g transform="matrix(24,0,0,24,347.695,216.547)">
                <path d="M0.158,-0L0.006,-0.53L0.1,-0.53L0.216,-0.12L0.342,-0.53L0.438,-0.53L0.548,-0.12L0.681,-0.53L0.764,-0.53L0.591,0L0.494,0L0.382,-0.411L0.255,0L0.158,0Z" style="fill:rgb(17,35,114);fill-rule:nonzero;"/>
            </g>
            <g transform="matrix(24,0,0,24,363.378,216.547)">
                <path d="M0.304,0.012C0.228,0.012 0.167,-0.013 0.122,-0.063C0.077,-0.114 0.054,-0.181 0.054,-0.265C0.054,-0.35 0.077,-0.418 0.122,-0.468C0.168,-0.517 0.229,-0.542 0.307,-0.542C0.385,-0.542 0.447,-0.517 0.492,-0.468C0.537,-0.418 0.56,-0.351 0.56,-0.266C0.56,-0.18 0.537,-0.111 0.492,-0.062C0.446,-0.013 0.383,0.012 0.304,0.012ZM0.305,-0.06C0.407,-0.06 0.458,-0.129 0.458,-0.266C0.458,-0.402 0.408,-0.47 0.307,-0.47C0.207,-0.47 0.157,-0.402 0.157,-0.265C0.157,-0.128 0.206,-0.06 0.305,-0.06Z" style="fill:rgb(17,35,114);fill-rule:nonzero;"/>
            </g>
            <g transform="matrix(24,0,0,24,375.312,216.547)">
                <path d="M0.096,-0L0.096,-0.53L0.192,-0.53L0.192,-0.431C0.23,-0.505 0.286,-0.542 0.358,-0.542C0.368,-0.542 0.378,-0.541 0.389,-0.54L0.389,-0.45C0.373,-0.455 0.358,-0.458 0.345,-0.458C0.284,-0.458 0.233,-0.422 0.192,-0.35L0.192,-0L0.096,-0Z" style="fill:rgb(17,35,114);fill-rule:nonzero;"/>
            </g>
            <g transform="matrix(24,0,0,24,382.324,216.547)">
                <path d="M0.096,-0L0.096,-0.771L0.192,-0.771L0.192,-0.273L0.417,-0.53L0.521,-0.53L0.306,-0.283L0.565,-0L0.442,-0L0.192,-0.272L0.192,-0L0.096,-0Z" style="fill:rgb(17,35,114);fill-rule:nonzero;"/>
            </g>
        </g>
        <path d="M974.44,797.549L974.44,708.722L986.803,708.722L1031.52,777.323L1031.52,708.722L1042.32,708.722L1042.32,797.549L1030.02,797.549L985.243,728.948L985.243,797.549L974.44,797.549Z" style="fill:rgb(17,35,114);fill-rule:nonzero;"/>
        <path d="M1076.73,799.049C1067.41,799.049 1059.96,795.958 1054.4,789.777C1048.84,783.595 1046.06,775.322 1046.06,764.959C1046.06,754.476 1048.85,746.184 1054.43,740.082C1060.02,733.98 1067.59,730.929 1077.15,730.929C1086.71,730.929 1094.29,733.98 1099.87,740.082C1105.45,746.184 1108.24,754.436 1108.24,764.839C1108.24,775.482 1105.44,783.845 1099.84,789.927C1094.24,796.008 1086.53,799.049 1076.73,799.049ZM1076.91,790.167C1089.43,790.167 1095.7,781.724 1095.7,764.839C1095.7,748.154 1089.51,739.812 1077.15,739.812C1064.83,739.812 1058.66,748.194 1058.66,764.959C1058.66,781.764 1064.75,790.167 1076.91,790.167Z" style="fill:rgb(17,35,114);fill-rule:nonzero;"/>
        <path d="M1112.34,797.549L1112.34,732.369L1124.16,732.369L1124.16,744.613C1128.85,735.49 1135.65,730.929 1144.57,730.929C1145.77,730.929 1147.03,731.029 1148.35,731.229L1148.35,742.272C1146.31,741.592 1144.51,741.252 1142.95,741.252C1135.47,741.252 1129.2,745.693 1124.16,754.576L1124.16,797.549L1112.34,797.549Z" style="fill:rgb(17,35,114);fill-rule:nonzero;"/>
        <path d="M1155.81,797.549L1137.14,732.369L1148.73,732.369L1163.01,782.844L1178.44,732.369L1190.26,732.369L1203.76,782.844L1220.15,732.369L1230.29,732.369L1209.05,797.549L1197.16,797.549L1183.36,747.074L1167.75,797.549L1155.81,797.549Z" style="fill:rgb(17,35,114);fill-rule:nonzero;"/>
        <path d="M1262.19,789.266C1255.11,795.788 1248.29,799.049 1241.72,799.049C1236.32,799.049 1231.84,797.359 1228.28,793.978C1224.72,790.597 1222.94,786.326 1222.94,781.164C1222.94,774.042 1225.93,768.57 1231.91,764.749C1237.89,760.928 1246.46,759.017 1257.63,759.017L1260.45,759.017L1260.45,751.155C1260.45,743.593 1256.57,739.812 1248.81,739.812C1242.56,739.812 1235.82,741.732 1228.58,745.573L1228.58,735.79C1236.54,732.549 1244.01,730.929 1250.97,730.929C1258.25,730.929 1263.62,732.569 1267.08,735.85C1270.54,739.131 1272.27,744.233 1272.27,751.155L1272.27,780.684C1272.27,787.446 1274.35,790.827 1278.52,790.827C1279.04,790.827 1279.8,790.747 1280.8,790.587L1281.64,797.129C1278.95,798.409 1275.99,799.049 1272.75,799.049C1267.23,799.049 1263.71,795.788 1262.19,789.266ZM1260.45,782.844L1260.45,765.979L1256.49,765.859C1250.01,765.859 1244.77,767.09 1240.76,769.551C1236.76,772.011 1234.76,775.242 1234.76,779.243C1234.76,782.084 1235.76,784.485 1237.76,786.446C1239.76,788.406 1242.2,789.386 1245.09,789.386C1250.01,789.386 1255.13,787.206 1260.45,782.844Z" style="fill:rgb(17,35,114);fill-rule:nonzero;"/>
        <path d="M1285.85,821.256L1296.41,797.549L1271.21,732.369L1283.99,732.369L1302.65,781.464L1322.58,732.369L1333.75,732.369L1298.15,821.256L1285.85,821.256Z" style="fill:rgb(17,35,114);fill-rule:nonzero;"/>
        <path d="M1709.26,498.762L1645.35,498.762C1645.74,501.487 1646,504.254 1646,507.087C1646,509.929 1645.74,512.696 1645.35,515.429L1709.26,515.429L1709.26,498.762Z" style="fill:rgb(26,23,27);fill-rule:nonzero;"/>
    </g>
</svg>
